<?xml version="1.0" encoding="UTF-8" standalone="no"?>
<!-- Created with Inkscape (http://www.inkscape.org/) -->

<svg
   xmlns:dc="http://purl.org/dc/elements/1.1/"
   xmlns:cc="http://creativecommons.org/ns#"
   xmlns:rdf="http://www.w3.org/1999/02/22-rdf-syntax-ns#"
   xmlns:svg="http://www.w3.org/2000/svg"
   xmlns="http://www.w3.org/2000/svg"
   xmlns:xlink="http://www.w3.org/1999/xlink"
   xmlns:sodipodi="http://sodipodi.sourceforge.net/DTD/sodipodi-0.dtd"
   xmlns:inkscape="http://www.inkscape.org/namespaces/inkscape"
   width="1000"
   height="1000"
   id="svg2"
   version="1.1"
   inkscape:version="0.48.4 r9939"
   sodipodi:docname="geofinder.svg"
   inkscape:export-filename="/home/przemo/Pictures/geofinder-256.png"
   inkscape:export-xdpi="23.040001"
   inkscape:export-ydpi="23.040001">
  <sodipodi:namedview
     id="base"
     pagecolor="#ffffff"
     bordercolor="#666666"
     borderopacity="1.0"
     inkscape:pageopacity="0.0"
     inkscape:pageshadow="2"
     inkscape:zoom="0.3605"
     inkscape:cx="85.625752"
     inkscape:cy="464.37517"
     inkscape:document-units="px"
     inkscape:current-layer="layer1"
     showgrid="false"
     inkscape:window-width="1366"
     inkscape:window-height="702"
     inkscape:window-x="0"
     inkscape:window-y="27"
     inkscape:window-maximized="1" />
  <defs
     id="defs4">
    <linearGradient
       id="linearGradient5159">
      <stop
         style="stop-color:#0016ff;stop-opacity:1;"
         offset="0"
         id="stop5161" />
      <stop
         style="stop-color:#00b3ff;stop-opacity:1;"
         offset="1"
         id="stop5163" />
    </linearGradient>
    <linearGradient
       id="linearGradient3840">
      <stop
         id="stop3842"
         offset="0"
         style="stop-color:#ff050b;stop-opacity:1;" />
      <stop
         id="stop3844"
         offset="1"
         style="stop-color:#ffdd00;stop-opacity:1;" />
    </linearGradient>
    <radialGradient
       gradientUnits="userSpaceOnUse"
       gradientTransform="matrix(0.52040545,0,0,0.52363495,75.251024,203.58971)"
       r="68.249306"
       fy="438.31454"
       fx="155.36674"
       cy="438.31454"
       cx="155.36674"
       id="radialGradient3848"
       xlink:href="#linearGradient3840"
       inkscape:collect="always" />
    <radialGradient
       id="radialGradient1773"
       gradientUnits="userSpaceOnUse"
       cy="1548.1"
       cx="-32.945"
       gradientTransform="matrix(-1.8804,2.3609,-2.5012,-2.3991,3780.3,5333)"
       r="22.421">
      <stop
         id="stop6536"
         stop-color="#16009e"
         offset="0" />
      <stop
         id="stop6544"
         stop-color="#7ccbff"
         offset=".5" />
      <stop
         id="stop6546"
         stop-color="#fff"
         offset="1" />
    </radialGradient>
    <linearGradient
       id="linearGradient1775"
       y2="1586.4"
       xlink:href="#linearGradient20137"
       gradientUnits="userSpaceOnUse"
       x2="12.767"
       gradientTransform="matrix(8.6505,0,0,8.806,566.58,-13540)"
       y1="1590"
       x1="12.77" />
    <linearGradient
       id="linearGradient20137">
      <stop
         id="stop20139"
         stop-color="#000593"
         offset="0" />
      <stop
         id="stop20141"
         stop-color="#00023a"
         offset="1" />
    </linearGradient>
    <linearGradient
       id="linearGradient1777"
       y2="1586.4"
       xlink:href="#linearGradient20137"
       gradientUnits="userSpaceOnUse"
       x2="12.767"
       gradientTransform="matrix(8.6505,0,0,8.806,566.58,-13540)"
       y1="1583.6"
       x1="14.402" />
    <linearGradient
       id="linearGradient4622">
      <stop
         id="stop4624"
         stop-color="#000593"
         offset="0" />
      <stop
         id="stop4626"
         stop-color="#00023a"
         offset="1" />
    </linearGradient>
    <linearGradient
       id="linearGradient1779"
       y2="1586.7"
       xlink:href="#linearGradient20137"
       gradientUnits="userSpaceOnUse"
       x2="18.447001"
       gradientTransform="matrix(8.6505,0,0,8.806,566.58,-13540)"
       y1="1591.1"
       x1="18.447001" />
    <linearGradient
       id="linearGradient4629">
      <stop
         id="stop4631"
         stop-color="#000593"
         offset="0" />
      <stop
         id="stop4633"
         stop-color="#00023a"
         offset="1" />
    </linearGradient>
    <linearGradient
       id="linearGradient1781"
       y2="1590.5"
       xlink:href="#linearGradient20137"
       gradientUnits="userSpaceOnUse"
       x2="19.424"
       gradientTransform="matrix(8.6505,0,0,8.806,566.58,-13540)"
       y1="1586.4"
       x1="19.006001" />
    <linearGradient
       id="linearGradient4636">
      <stop
         id="stop4638"
         stop-color="#000593"
         offset="0" />
      <stop
         id="stop4640"
         stop-color="#00023a"
         offset="1" />
    </linearGradient>
    <linearGradient
       id="linearGradient1783"
       y2="1590.7"
       xlink:href="#linearGradient20137"
       gradientUnits="userSpaceOnUse"
       x2="23.128"
       gradientTransform="matrix(8.6505,0,0,8.806,566.58,-13540)"
       y1="1593.1"
       x1="23.128" />
    <linearGradient
       id="linearGradient4643">
      <stop
         id="stop4645"
         stop-color="#000593"
         offset="0" />
      <stop
         id="stop4647"
         stop-color="#00023a"
         offset="1" />
    </linearGradient>
    <linearGradient
       id="linearGradient1785"
       y2="1594.1"
       xlink:href="#linearGradient20137"
       gradientUnits="userSpaceOnUse"
       x2="23.128"
       gradientTransform="matrix(8.6505,0,0,8.806,566.58,-13540)"
       y1="1588.8"
       x1="23.128" />
    <linearGradient
       id="linearGradient4650">
      <stop
         id="stop4652"
         stop-color="#000593"
         offset="0" />
      <stop
         id="stop4654"
         stop-color="#00023a"
         offset="1" />
    </linearGradient>
    <linearGradient
       id="linearGradient1787"
       y2="1548.8"
       xlink:href="#linearGradient20137"
       gradientUnits="userSpaceOnUse"
       x2="47.921001"
       gradientTransform="matrix(8.6505,0,0,8.806,566.58,-13540)"
       y1="1546.1"
       x1="48.936001" />
    <linearGradient
       id="linearGradient4657">
      <stop
         id="stop4659"
         stop-color="#000593"
         offset="0" />
      <stop
         id="stop4661"
         stop-color="#00023a"
         offset="1" />
    </linearGradient>
    <linearGradient
       id="linearGradient1789"
       y2="1546.1"
       xlink:href="#linearGradient20137"
       gradientUnits="userSpaceOnUse"
       x2="48.936001"
       gradientTransform="matrix(8.6505,0,0,8.806,566.58,-13540)"
       y1="1551"
       x1="46.219002" />
    <linearGradient
       id="linearGradient4664">
      <stop
         id="stop4666"
         stop-color="#000593"
         offset="0" />
      <stop
         id="stop4668"
         stop-color="#00023a"
         offset="1" />
    </linearGradient>
    <linearGradient
       id="linearGradient1791"
       y2="1554.2"
       xlink:href="#linearGradient20137"
       gradientUnits="userSpaceOnUse"
       x2="53.797001"
       gradientTransform="matrix(8.6505,0,0,8.806,566.58,-13540)"
       y1="1550.5"
       x1="59.308998" />
    <linearGradient
       id="linearGradient4671">
      <stop
         id="stop4673"
         stop-color="#000593"
         offset="0" />
      <stop
         id="stop4675"
         stop-color="#00023a"
         offset="1" />
    </linearGradient>
    <linearGradient
       id="linearGradient1793"
       y2="1551"
       xlink:href="#linearGradient20137"
       gradientUnits="userSpaceOnUse"
       x2="60.063999"
       gradientTransform="matrix(8.6505,0,0,8.806,566.58,-13540)"
       y1="1555.4"
       x1="55.944" />
    <linearGradient
       id="linearGradient4678">
      <stop
         id="stop4680"
         stop-color="#000593"
         offset="0" />
      <stop
         id="stop4682"
         stop-color="#00023a"
         offset="1" />
    </linearGradient>
    <linearGradient
       id="linearGradient1795"
       y2="1566.8"
       xlink:href="#linearGradient20137"
       gradientUnits="userSpaceOnUse"
       x2="59.155998"
       gradientTransform="matrix(8.6505,0,0,8.806,566.58,-13540)"
       y1="1548.4"
       x1="72.003998" />
    <linearGradient
       id="linearGradient4685">
      <stop
         id="stop4687"
         stop-color="#000593"
         offset="0" />
      <stop
         id="stop4689"
         stop-color="#00023a"
         offset="1" />
    </linearGradient>
    <linearGradient
       id="linearGradient1797"
       y2="1557.6"
       xlink:href="#linearGradient20137"
       gradientUnits="userSpaceOnUse"
       x2="69.311996"
       gradientTransform="matrix(8.6505,0,0,8.806,566.58,-13540)"
       y1="1570.1"
       x1="59.484001" />
    <linearGradient
       id="linearGradient4692">
      <stop
         id="stop4694"
         stop-color="#000593"
         offset="0" />
      <stop
         id="stop4696"
         stop-color="#00023a"
         offset="1" />
    </linearGradient>
    <linearGradient
       id="linearGradient1799"
       y2="1593.9"
       xlink:href="#linearGradient20137"
       gradientUnits="userSpaceOnUse"
       x2="59.752998"
       gradientTransform="matrix(8.6505,0,0,8.806,566.58,-13540)"
       y1="1597.3"
       x1="89.156998" />
    <linearGradient
       id="linearGradient4699">
      <stop
         id="stop4701"
         stop-color="#000593"
         offset="0" />
      <stop
         id="stop4703"
         stop-color="#00023a"
         offset="1" />
    </linearGradient>
    <linearGradient
       id="linearGradient4705"
       y2="1593.9"
       xlink:href="#linearGradient20137"
       gradientUnits="userSpaceOnUse"
       x2="59.752998"
       gradientTransform="matrix(8.6505,0,0,8.806,566.58,-13540)"
       y1="1597.3"
       x1="89.156998" />
    <linearGradient
       id="linearGradient4707">
      <stop
         id="stop4709"
         stop-color="#000593"
         offset="0" />
      <stop
         id="stop4711"
         stop-color="#00023a"
         offset="1" />
    </linearGradient>
    <linearGradient
       id="linearGradient1803"
       y2="1581.5"
       xlink:href="#linearGradient20137"
       gradientUnits="userSpaceOnUse"
       x2="8.3376999"
       gradientTransform="matrix(8.6505,0,0,8.806,566.58,-13540)"
       y1="1589.8"
       x1="8.7990999" />
    <linearGradient
       id="linearGradient4714">
      <stop
         id="stop4716"
         stop-color="#000593"
         offset="0" />
      <stop
         id="stop4718"
         stop-color="#00023a"
         offset="1" />
    </linearGradient>
    <linearGradient
       id="linearGradient1805"
       y2="1586.4"
       xlink:href="#linearGradient20137"
       gradientUnits="userSpaceOnUse"
       x2="8.1456003"
       gradientTransform="matrix(8.6505,0,0,8.806,566.58,-13540)"
       y1="1582.1"
       x1="7.6469002" />
    <linearGradient
       id="linearGradient4721">
      <stop
         id="stop4723"
         stop-color="#000593"
         offset="0" />
      <stop
         id="stop4725"
         stop-color="#00023a"
         offset="1" />
    </linearGradient>
    <linearGradient
       id="linearGradient1807"
       y2="1583.7"
       xlink:href="#linearGradient20137"
       gradientUnits="userSpaceOnUse"
       x2="25.165001"
       gradientTransform="matrix(8.6505,0,0,8.806,566.58,-13540)"
       y1="1627.2"
       x1="23.75" />
    <linearGradient
       id="linearGradient4728">
      <stop
         id="stop4730"
         stop-color="#000593"
         offset="0" />
      <stop
         id="stop4732"
         stop-color="#00023a"
         offset="1" />
    </linearGradient>
    <linearGradient
       id="linearGradient1809"
       y2="1651.8"
       xlink:href="#linearGradient20137"
       gradientUnits="userSpaceOnUse"
       x2="27.4"
       gradientTransform="matrix(8.6505,0,0,8.806,566.58,-13540)"
       y1="1528.3"
       x1="26.212" />
    <linearGradient
       id="linearGradient4735">
      <stop
         id="stop4737"
         stop-color="#000593"
         offset="0" />
      <stop
         id="stop4739"
         stop-color="#00023a"
         offset="1" />
    </linearGradient>
    <linearGradient
       id="linearGradient1811"
       y2="1556.5"
       xlink:href="#linearGradient4646"
       gradientUnits="userSpaceOnUse"
       x2="-143.82001"
       y1="1539.4"
       x1="-159.14" />
    <linearGradient
       id="linearGradient4646">
      <stop
         id="stop4648"
         stop-color="#fff"
         stop-opacity=".64948"
         offset="0" />
      <stop
         id="stop4650"
         stop-color="#fff"
         stop-opacity="0"
         offset="1" />
    </linearGradient>
    <linearGradient
       id="linearGradient1813"
       y2="1559"
       xlink:href="#linearGradient4646"
       gradientUnits="userSpaceOnUse"
       x2="-4.9626999"
       y1="1561.6"
       x1="-0.89604002" />
    <linearGradient
       id="linearGradient4746">
      <stop
         id="stop4748"
         stop-color="#fff"
         stop-opacity=".64948"
         offset="0" />
      <stop
         id="stop4750"
         stop-color="#fff"
         stop-opacity="0"
         offset="1" />
    </linearGradient>
    <linearGradient
       id="linearGradient1815"
       y2="1595.2"
       xlink:href="#linearGradient6758"
       gradientUnits="userSpaceOnUse"
       x2="21.447001"
       gradientTransform="matrix(8.6505,0,0,8.806,566.58,-13540)"
       y1="1606.9"
       x1="21.447001" />
    <linearGradient
       id="linearGradient6758">
      <stop
         id="stop6760"
         stop-opacity=".082474"
         offset="0" />
      <stop
         id="stop6762"
         stop-opacity="0"
         offset="1" />
    </linearGradient>
    <linearGradient
       id="linearGradient1817"
       y2="1533.4"
       xlink:href="#linearGradient6758"
       gradientUnits="userSpaceOnUse"
       x2="30.447001"
       gradientTransform="matrix(8.6505,0,0,8.806,566.58,-13540)"
       y1="1567.7"
       x1="30.447001" />
    <linearGradient
       id="linearGradient4757">
      <stop
         id="stop4759"
         stop-opacity=".082474"
         offset="0" />
      <stop
         id="stop4761"
         stop-opacity="0"
         offset="1" />
    </linearGradient>
    <linearGradient
       id="linearGradient1819"
       y2="1580.8"
       xlink:href="#linearGradient6758"
       gradientUnits="userSpaceOnUse"
       x2="44.248001"
       gradientTransform="matrix(8.6505,0,0,8.806,566.58,-13540)"
       y1="1587.9"
       x1="44.248001" />
    <linearGradient
       id="linearGradient4764">
      <stop
         id="stop4766"
         stop-opacity=".082474"
         offset="0" />
      <stop
         id="stop4768"
         stop-opacity="0"
         offset="1" />
    </linearGradient>
    <linearGradient
       id="linearGradient1821"
       y2="1585.4"
       xlink:href="#linearGradient6758"
       gradientUnits="userSpaceOnUse"
       x2="45.324001"
       gradientTransform="matrix(8.6505,0,0,8.806,566.58,-13540)"
       y1="1597.3"
       x1="45.324001" />
    <linearGradient
       id="linearGradient4771">
      <stop
         id="stop4773"
         stop-opacity=".082474"
         offset="0" />
      <stop
         id="stop4775"
         stop-opacity="0"
         offset="1" />
    </linearGradient>
    <linearGradient
       id="linearGradient1823"
       y2="1584.2"
       xlink:href="#linearGradient6758"
       gradientUnits="userSpaceOnUse"
       x2="24.447001"
       gradientTransform="matrix(8.6505,0,0,8.806,566.58,-13540)"
       y1="1592.5"
       x1="24.447001" />
    <linearGradient
       id="linearGradient4778">
      <stop
         id="stop4780"
         stop-opacity=".082474"
         offset="0" />
      <stop
         id="stop4782"
         stop-opacity="0"
         offset="1" />
    </linearGradient>
    <linearGradient
       id="linearGradient1825"
       y2="1584.2"
       xlink:href="#linearGradient6758"
       gradientUnits="userSpaceOnUse"
       x2="64.415001"
       gradientTransform="matrix(8.6505,0,0,8.806,566.58,-13540)"
       y1="1589.3"
       x1="63" />
    <linearGradient
       id="linearGradient4785">
      <stop
         id="stop4787"
         stop-opacity=".082474"
         offset="0" />
      <stop
         id="stop4789"
         stop-opacity="0"
         offset="1" />
    </linearGradient>
    <radialGradient
       inkscape:collect="always"
       xlink:href="#linearGradient5159-8"
       id="radialGradient5173-7"
       cx="422.08801"
       cy="471.91339"
       fx="422.08801"
       fy="471.91339"
       r="8.7373428"
       gradientTransform="matrix(1,0,0,2.5723568,0,-742.01623)"
       gradientUnits="userSpaceOnUse" />
    <linearGradient
       id="linearGradient5159-8">
      <stop
         style="stop-color:#ff0009;stop-opacity:1;"
         offset="0"
         id="stop5161-3" />
      <stop
         style="stop-color:#ff009d;stop-opacity:1;"
         offset="1"
         id="stop5163-3" />
    </linearGradient>
    <linearGradient
       id="linearGradient5348">
      <stop
         style="stop-color:#0016ff;stop-opacity:1;"
         offset="0"
         id="stop5350" />
      <stop
         style="stop-color:#00b3ff;stop-opacity:1;"
         offset="1"
         id="stop5352" />
    </linearGradient>
    <linearGradient
       id="linearGradient5355">
      <stop
         style="stop-color:#0016ff;stop-opacity:1;"
         offset="0"
         id="stop5357" />
      <stop
         style="stop-color:#00b3ff;stop-opacity:1;"
         offset="1"
         id="stop5359" />
    </linearGradient>
    <radialGradient
       id="radialGradient3979"
       gradientUnits="userSpaceOnUse"
       cy="315.41"
       cx="298.10001"
       gradientTransform="matrix(1.131,0,0,1.1312,-22.1,-17.655)"
       r="149.3">
      <stop
         id="stop3366"
         stop-color="#007fff"
         offset="0" />
      <stop
         id="stop3413"
         stop-color="#1c8eff"
         offset=".39286" />
      <stop
         id="stop3368"
         stop-color="#1a4a7a"
         offset="1" />
    </radialGradient>
    <radialGradient
       id="radialGradient3976"
       spreadMethod="reflect"
       gradientUnits="userSpaceOnUse"
       cy="249.47"
       cx="317.85999"
       gradientTransform="matrix(0.92255,0.54994,-0.61282,1.0614,218.04,-49.879)"
       r="141.81">
      <stop
         id="stop6694"
         stop-color="#b8ff71"
         offset="0" />
      <stop
         id="stop6700"
         stop-color="#6c0"
         offset="1" />
    </radialGradient>
    <radialGradient
       id="radialGradient3969"
       gradientUnits="userSpaceOnUse"
       cy="309.10999"
       cx="298.67001"
       gradientTransform="matrix(0.24362,0.87764,-1.1344,0.31491,586.41,-25.658)"
       r="130.08">
      <stop
         id="stop3353"
         stop-color="#fff"
         stop-opacity=".86735"
         offset="0" />
      <stop
         id="stop3355"
         stop-color="#fff"
         stop-opacity="0"
         offset="1" />
    </radialGradient>
    <linearGradient
       id="linearGradient5856"
       x1="20.916"
       gradientUnits="userSpaceOnUse"
       y1="32.257"
       gradientTransform="matrix(9.7661,-4.9368,4.9368,9.7661,58.061,453.43)"
       x2="20.562"
       y2="26.219999">
      <stop
         id="stop5852"
         stop-color="#2e3436"
         offset="0" />
      <stop
         id="stop5854"
         stop-color="#2e3436"
         stop-opacity="0"
         offset="1" />
    </linearGradient>
    <radialGradient
       id="radialGradient3568"
       gradientUnits="userSpaceOnUse"
       cy="383.23001"
       cx="127.05"
       gradientTransform="matrix(1.1161,1.1147,-1.0172,1.0184,601.34,-3.7697)"
       r="110.19">
      <stop
         id="stop3564"
         stop-color="#4e9a06"
         offset="0"
         style="stop-color:#7cff00;stop-opacity:1;" />
      <stop
         id="stop3566"
         stop-color="#595b5b"
         stop-opacity=".57616"
         offset="1"
         style="stop-color:#030303;stop-opacity:0.57616001;" />
    </radialGradient>
    <linearGradient
       id="linearGradient5501"
       x1="416.13"
       gradientUnits="userSpaceOnUse"
       y1="757.65002"
       gradientTransform="matrix(1.0873,-0.56317,0.56317,1.0873,-577.6,-147.28)"
       x2="423.56"
       y2="829.77002">
      <stop
         id="stop5497"
         stop-color="#fff"
         offset="0" />
      <stop
         id="stop5499"
         stop-color="#fff"
         stop-opacity="0"
         offset="1" />
    </linearGradient>
    <linearGradient
       id="linearGradient7809"
       x1="110.92"
       gradientUnits="userSpaceOnUse"
       y1="364.73999"
       gradientTransform="translate(223.54,136.38)"
       x2="131.95"
       y2="428.73001">
      <stop
         id="stop7805"
         stop-color="#eff3f8"
         offset="0" />
      <stop
         id="stop7807"
         stop-color="#eff3f8"
         stop-opacity="0"
         offset="1" />
    </linearGradient>
    <linearGradient
       inkscape:collect="always"
       xlink:href="#linearGradient5501"
       id="linearGradient4096"
       gradientUnits="userSpaceOnUse"
       gradientTransform="matrix(3.7071679,-1.9201378,1.9201378,3.7071679,-2662.6789,-1764.8991)"
       x1="416.13"
       y1="757.65002"
       x2="423.56"
       y2="829.77002" />
    <radialGradient
       inkscape:collect="always"
       xlink:href="#radialGradient3568"
       id="radialGradient4099"
       gradientUnits="userSpaceOnUse"
       gradientTransform="matrix(3.805362,3.8005887,-3.4681609,3.4722523,1356.9373,-1275.5982)"
       cx="127.05"
       cy="383.23001"
       r="110.19" />
    <linearGradient
       inkscape:collect="always"
       xlink:href="#linearGradient5856"
       id="linearGradient4102"
       gradientUnits="userSpaceOnUse"
       gradientTransform="matrix(33.297685,-16.832104,16.832104,33.297685,-495.38178,283.23193)"
       x1="20.916"
       y1="32.257"
       x2="20.562"
       y2="26.219999" />
    <radialGradient
       inkscape:collect="always"
       xlink:href="#radialGradient3979"
       id="radialGradient4128"
       gradientUnits="userSpaceOnUse"
       gradientTransform="matrix(3.0113896,0,0,3.0119221,-521.42036,-601.12519)"
       cx="298.10001"
       cy="315.41"
       r="149.3" />
    <radialGradient
       inkscape:collect="always"
       xlink:href="#linearGradient5159-8"
       id="radialGradient4130"
       gradientUnits="userSpaceOnUse"
       gradientTransform="matrix(3.403148,1.9648084,-5.0541882,8.7541107,1395.6024,-4424.4052)"
       cx="422.08801"
       cy="471.91339"
       fx="422.08801"
       fy="471.91339"
       r="8.7373428" />
    <radialGradient
       inkscape:collect="always"
       xlink:href="#linearGradient5159-8"
       id="radialGradient4132"
       gradientUnits="userSpaceOnUse"
       gradientTransform="matrix(3.403148,1.9648084,-1.2658515,2.1925192,101.46877,-695.53854)"
       cx="258.51868"
       cy="380.71692"
       fx="258.51868"
       fy="380.71692"
       r="19.944769" />
    <radialGradient
       inkscape:collect="always"
       xlink:href="#linearGradient5159-8"
       id="radialGradient4134"
       gradientUnits="userSpaceOnUse"
       gradientTransform="matrix(3.403148,1.9648084,-1.2649866,2.191021,404.48977,-1218.3076)"
       cx="258.52676"
       cy="563.1283"
       fx="258.52676"
       fy="563.1283"
       r="19.936708" />
    <radialGradient
       inkscape:collect="always"
       xlink:href="#linearGradient3840"
       id="radialGradient4204"
       cx="504.15131"
       cy="557.98706"
       fx="504.15131"
       fy="557.98706"
       r="490.9624"
       gradientTransform="matrix(1.3220124,-0.01409743,0.01062853,0.99670986,-166.877,8.8660669)"
       gradientUnits="userSpaceOnUse" />
    <radialGradient
       inkscape:collect="always"
       xlink:href="#linearGradient3840"
       id="radialGradient5663"
       gradientUnits="userSpaceOnUse"
       gradientTransform="matrix(1.3220124,-0.01409743,0.01062853,0.99670986,-166.877,8.8660669)"
       cx="504.15131"
       cy="557.98706"
       fx="504.15131"
       fy="557.98706"
       r="490.9624" />
    <radialGradient
       inkscape:collect="always"
       xlink:href="#linearGradient3840"
       id="radialGradient5666"
       gradientUnits="userSpaceOnUse"
       gradientTransform="matrix(1.3220124,-0.01409743,0.01062853,0.99670986,-166.877,8.8660669)"
       cx="504.15131"
       cy="557.98706"
       fx="504.15131"
       fy="557.98706"
       r="490.9624" />
    <radialGradient
       inkscape:collect="always"
       xlink:href="#linearGradient3840"
       id="radialGradient5669"
       gradientUnits="userSpaceOnUse"
       gradientTransform="matrix(1.3220124,-0.01409743,0.01062853,0.99670986,-166.877,8.8660669)"
       cx="504.15131"
       cy="557.98706"
       fx="504.15131"
       fy="557.98706"
       r="490.9624" />
    <radialGradient
       inkscape:collect="always"
       xlink:href="#linearGradient3840"
       id="radialGradient5672"
       gradientUnits="userSpaceOnUse"
       gradientTransform="matrix(0.24889112,-0.01205882,0.00933462,0.19266424,540.12102,163.63988)"
       cx="793.5545"
       cy="-49.180698"
       fx="793.5545"
       fy="-49.180698"
       r="490.9624" />
    <radialGradient
       inkscape:collect="always"
       xlink:href="#linearGradient3840"
       id="radialGradient5675"
       gradientUnits="userSpaceOnUse"
       gradientTransform="matrix(1.3220124,-0.01409743,0.01062853,0.99670986,-166.877,8.8660669)"
       cx="504.15131"
       cy="557.98706"
       fx="504.15131"
       fy="557.98706"
       r="490.9624" />
    <radialGradient
       inkscape:collect="always"
       xlink:href="#linearGradient3840"
       id="radialGradient5678"
       gradientUnits="userSpaceOnUse"
       gradientTransform="matrix(1.3220124,-0.01409743,0.01062853,0.99670986,-166.877,8.8660669)"
       cx="504.15131"
       cy="557.98706"
       fx="504.15131"
       fy="557.98706"
       r="490.9624" />
    <radialGradient
       inkscape:collect="always"
       xlink:href="#linearGradient3840"
       id="radialGradient6316"
       gradientUnits="userSpaceOnUse"
       gradientTransform="matrix(0.19970647,0.08011317,-0.05893024,0.14690155,789.83823,391.65974)"
       cx="1079.8478"
       cy="505.04834"
       fx="1079.8478"
       fy="505.04834"
       r="490.9624" />
    <radialGradient
       inkscape:collect="always"
       xlink:href="#linearGradient3840-1"
       id="radialGradient5672-7"
       gradientUnits="userSpaceOnUse"
       gradientTransform="matrix(0.24889112,-0.01205882,0.00933462,0.19266424,540.12102,163.63988)"
       cx="793.5545"
       cy="-49.180698"
       fx="793.5545"
       fy="-49.180698"
       r="490.9624" />
    <linearGradient
       id="linearGradient3840-1">
      <stop
         id="stop3842-4"
         offset="0"
         style="stop-color:#ff050b;stop-opacity:1;" />
      <stop
         id="stop3844-3"
         offset="1"
         style="stop-color:#ffdd00;stop-opacity:1;" />
    </linearGradient>
    <radialGradient
       r="490.9624"
       fy="-49.180698"
       fx="793.5545"
       cy="-49.180698"
       cx="793.5545"
       gradientTransform="matrix(0.1348888,0.20951662,-0.16218482,0.10441614,859.12861,391.4972)"
       gradientUnits="userSpaceOnUse"
       id="radialGradient6333"
       xlink:href="#linearGradient3840-1"
       inkscape:collect="always" />
    <radialGradient
       inkscape:collect="always"
       xlink:href="#linearGradient3840-7"
       id="radialGradient5672-76"
       gradientUnits="userSpaceOnUse"
       gradientTransform="matrix(0.24889112,-0.01205882,0.00933462,0.19266424,540.12102,163.63988)"
       cx="793.5545"
       cy="-49.180698"
       fx="793.5545"
       fy="-49.180698"
       r="490.9624" />
    <linearGradient
       id="linearGradient3840-7">
      <stop
         id="stop3842-9"
         offset="0"
         style="stop-color:#ff050b;stop-opacity:1;" />
      <stop
         id="stop3844-9"
         offset="1"
         style="stop-color:#ffdd00;stop-opacity:1;" />
    </linearGradient>
    <radialGradient
       r="490.9624"
       fy="-49.180698"
       fx="793.5545"
       cy="-49.180698"
       cx="793.5545"
       gradientTransform="matrix(-0.11400232,0.22157544,-0.17151943,-0.0882481,818.7102,780.26546)"
       gradientUnits="userSpaceOnUse"
       id="radialGradient6333-4"
       xlink:href="#linearGradient3840-7"
       inkscape:collect="always" />
    <radialGradient
       inkscape:collect="always"
       xlink:href="#linearGradient3840-2"
       id="radialGradient5672-0"
       gradientUnits="userSpaceOnUse"
       gradientTransform="matrix(0.24889112,-0.01205882,0.00933462,0.19266424,540.12102,163.63988)"
       cx="793.5545"
       cy="-49.180698"
       fx="793.5545"
       fy="-49.180698"
       r="490.9624" />
    <linearGradient
       id="linearGradient3840-2">
      <stop
         id="stop3842-0"
         offset="0"
         style="stop-color:#ff050b;stop-opacity:1;" />
      <stop
         id="stop3844-6"
         offset="1"
         style="stop-color:#ffdd00;stop-opacity:1;" />
    </linearGradient>
    <radialGradient
       r="490.9624"
       fy="-49.180698"
       fx="793.5545"
       cy="-49.180698"
       cx="793.5545"
       gradientTransform="matrix(-0.24889112,0.01205882,-0.00933462,-0.19266424,459.94844,941.09363)"
       gradientUnits="userSpaceOnUse"
       id="radialGradient6333-9"
       xlink:href="#linearGradient3840-2"
       inkscape:collect="always" />
    <radialGradient
       inkscape:collect="always"
       xlink:href="#linearGradient3840-16"
       id="radialGradient5672-1"
       gradientUnits="userSpaceOnUse"
       gradientTransform="matrix(0.24889112,-0.01205882,0.00933462,0.19266424,540.12102,163.63988)"
       cx="793.5545"
       cy="-49.180698"
       fx="793.5545"
       fy="-49.180698"
       r="490.9624" />
    <linearGradient
       id="linearGradient3840-16">
      <stop
         id="stop3842-8"
         offset="0"
         style="stop-color:#ff050b;stop-opacity:1;" />
      <stop
         id="stop3844-7"
         offset="1"
         style="stop-color:#ffdd00;stop-opacity:1;" />
    </linearGradient>
    <radialGradient
       r="490.9624"
       fy="-49.180698"
       fx="793.5545"
       cy="-49.180698"
       cx="793.5545"
       gradientTransform="matrix(-0.1348888,-0.20951662,0.16218482,-0.10441614,140.8714,713.20886)"
       gradientUnits="userSpaceOnUse"
       id="radialGradient6333-6"
       xlink:href="#linearGradient3840-16"
       inkscape:collect="always" />
    <radialGradient
       inkscape:collect="always"
       xlink:href="#linearGradient3840-0"
       id="radialGradient5672-77"
       gradientUnits="userSpaceOnUse"
       gradientTransform="matrix(0.24889112,-0.01205882,0.00933462,0.19266424,540.12102,163.63988)"
       cx="793.5545"
       cy="-49.180698"
       fx="793.5545"
       fy="-49.180698"
       r="490.9624" />
    <linearGradient
       id="linearGradient3840-0">
      <stop
         id="stop3842-5"
         offset="0"
         style="stop-color:#ff050b;stop-opacity:1;" />
      <stop
         id="stop3844-1"
         offset="1"
         style="stop-color:#ffdd00;stop-opacity:1;" />
    </linearGradient>
    <radialGradient
       r="490.9624"
       fy="-49.180698"
       fx="793.5545"
       cy="-49.180698"
       cx="793.5545"
       gradientTransform="matrix(0.11400232,-0.22157544,0.17151943,0.0882481,181.30491,324.54347)"
       gradientUnits="userSpaceOnUse"
       id="radialGradient6333-7"
       xlink:href="#linearGradient3840-0"
       inkscape:collect="always" />
  </defs>
  <metadata
     id="metadata7">
    <rdf:RDF>
      <cc:Work
         rdf:about="">
        <dc:format>image/svg+xml</dc:format>
        <dc:type
           rdf:resource="http://purl.org/dc/dcmitype/StillImage" />
        <dc:title></dc:title>
      </cc:Work>
    </rdf:RDF>
  </metadata>
  <g
     id="layer1"
     inkscape:groupmode="layer"
     inkscape:label="Layer 1"
     transform="translate(0,-52.362183)">
    <g
       id="g2617"
       transform="matrix(0.18186827,0,0,0.18186827,528.70393,446.93634)">
      <g
         id="g2049"
         transform="translate(71.669,8.7884)">
        <g
           id="g2875"
           transform="translate(-48.932,87.179)">
          <g
             id="g2360"
             transform="translate(-58.334,26.882)">
            <g
               id="g2396"
               transform="translate(0.84266,31.106)">
              <g
                 id="g2398"
                 transform="translate(71.669,8.7884)" />
            </g>
          </g>
        </g>
        <g
           id="g3393"
           transform="translate(-128.6,92.726)">
          <g
             id="g3842"
             transform="translate(5.6673,-1.8166e-6)" />
        </g>
      </g>
    </g>
    <path
       style="fill:url(#radialGradient4128)"
       inkscape:connector-curvature="0"
       id="path6109"
       d="m 500.00253,154.77088 c -70.50539,0 -136.61751,18.55826 -194.04958,50.80223 -0.0266,0.0266 -0.10651,-0.0266 -0.13313,0 -37.16976,20.8747 -70.42551,47.74024 -98.96848,78.99905 -64.62107,70.7184 -104.45342,164.52146 -104.45342,267.80334 0,219.47731 178.18054,397.57797 397.60461,397.57797 6.92274,0 13.60584,-0.66562 20.44869,-1.01179 10.96988,-0.55916 21.77999,-1.43779 32.48361,-2.87558 99.42112,-13.31293 187.23334,-63.10339 249.29832,-135.84536 59.26926,-69.44036 95.24086,-159.46254 95.24086,-257.84524 0,-50.24309 -9.61195,-98.06321 -26.6259,-142.31546 C 862.5142,388.35993 852.20997,367.5651 840.36144,347.88856 789.02671,262.60579 706.83254,198.25098 609.06223,170.32041 574.34205,160.41558 537.89119,154.77088 500.00253,154.77088 z" />
    <path
       style="fill:url(#linearGradient4102)"
       inkscape:connector-curvature="0"
       id="path5843"
       d="m 416.79702,919.55011 c 82.81717,21.0026 172.62385,13.33123 254.86141,-28.2308 C 753.89597,849.7232 813.32386,781.9761 845.5097,702.8412 L 416.79702,919.55011 z" />
    <path
       style="fill:url(#radialGradient4099)"
       inkscape:connector-curvature="0"
       id="flowRoot2511"
       d="m 439.91354,208.12027 c -1.90933,-0.47734 -3.88685,-0.95467 -5.89846,-1.36381 -0.51143,-0.23867 -1.56838,-0.0341 -3.27314,0.64781 -1.46609,0.57962 -2.45485,1.15924 -2.89808,1.73885 -0.30687,0.68191 -0.7501,2.25029 -1.36382,4.60285 -0.44323,2.45485 -0.57961,4.09142 -0.34094,4.97789 -6.58037,-3.40951 -12.92208,-6.3076 -18.99102,-8.52379 -6.10303,-2.25028 -12.13788,-3.85275 -18.07043,-5.01199 -4.84152,-1.09104 -9.81941,-1.77294 -15.00188,-2.04571 -13.19483,4.9779 -26.08281,10.53541 -38.59573,16.94531 1.80704,0.64781 3.51179,1.26152 4.9097,1.87522 1.94342,0.64781 3.37543,1.09105 4.2278,1.4661 l -1.73885,4.05732 -11.76283,-5.04608 c -2.76171,1.43199 -5.45523,2.89809 -8.14875,4.39828 0.47733,1.26152 1.09105,2.38666 1.84114,3.37542 1.53428,2.07981 3.30723,3.92094 5.48932,5.45523 2.21618,1.36381 4.60285,2.59123 7.15998,3.71637 2.62533,0.92057 5.11428,1.87524 7.50094,2.89809 2.35257,1.02285 4.36419,2.45485 6.03485,4.15961 1.90932,1.63657 3.23904,3.78457 3.88685,6.47808 0.88647,2.59123 1.02285,5.86438 0.34095,9.78532 -0.47733,3.85275 -1.97752,8.55789 -4.39827,14.14949 1.3638,0.61372 2.7276,0.6819 3.92094,0.20457 1.3979,-0.40914 2.48895,-0.47733 3.34133,-0.10228 -0.13639,0.34095 -0.13639,1.15924 0.10228,2.45485 0.23866,1.29562 0.13638,2.01161 -0.37505,2.21618 -0.23867,0.10229 -0.6819,0.17048 -1.43199,0.0341 -0.57962,-0.0341 -1.26152,-0.17048 -2.01162,-0.30686 -0.75009,-0.13639 -1.4661,-0.23867 -2.21618,-0.37505 -0.7501,-0.13638 -1.32971,-0.0682 -1.56838,0.0341 -0.34096,-0.17047 -0.64781,0.0341 -0.95467,0.716 -0.0682,0.17048 -0.17048,0.44324 -0.34095,0.78419 0.0341,0.40914 0.20457,0.68191 0.37504,0.78419 l 7.8419,10.94455 v 0.88647 c -0.61372,1.32972 -1.70476,2.1821 -3.23904,2.52304 -1.50019,0.17048 -3.20495,0.57963 -5.08019,1.19334 -1.77294,0.40914 -3.57999,1.19333 -5.48932,2.35257 -1.84114,1.02285 -3.40952,2.89808 -4.60284,5.6257 -0.13639,0.34095 -0.34096,0.75009 -0.54553,1.26152 -0.0682,0.57962 -0.0341,1.02286 -0.10228,1.19333 -0.17048,0.34095 -0.27276,0.92057 -0.30687,1.90933 0.20458,0.88648 0.37505,1.97752 0.44324,3.20494 0.23868,1.32972 0.30686,2.48895 0.27277,3.51181 0.13637,1.05695 0.23867,1.73885 0.17047,1.90933 -0.0682,0.57961 -0.37504,1.77295 -1.02285,3.68228 -0.61371,1.94342 -1.36381,4.09142 -2.14799,6.3758 -0.71601,2.1139 -1.4661,4.26189 -2.1821,6.37579 -0.61371,1.94343 -0.95466,3.13675 -0.98876,3.71637 -0.44323,2.42076 -0.34095,4.67104 0.40915,6.61447 1.02285,1.84114 2.28437,3.54589 3.78456,5.21656 1.67066,1.73885 3.44361,3.37542 5.18247,4.94379 1.97751,1.432 3.4777,3.06858 4.56875,4.73924 0,0 0.0341,0.0341 0.13638,0.27276 0.34095,0.13638 0.61371,0.34095 0.78418,0.40914 2.52305,1.12514 5.42114,0.20457 8.66018,-2.62533 3.40952,-2.7617 6.78494,-6.03485 10.05808,-9.85351 3.51179,-3.92094 6.75084,-7.60321 9.78531,-10.91045 3.03447,-3.34132 5.76209,-4.8756 8.11465,-4.67103 5.21656,0.44324 10.46722,0.92057 15.71787,1.3979 5.42113,0.51142 10.77408,0.71599 16.05883,0.57962 5.55751,-0.23867 10.91045,-0.88648 16.2293,-2.01162 5.55751,-1.22742 10.97864,-3.20495 16.12702,-5.79618 L 434.93565,317.3612 c 0.92057,-1.22742 1.94342,-1.53428 3.13676,-1.02285 1.26152,0.34095 2.42075,0.716 3.44361,1.12514 2.86399,1.26153 4.97789,3.06857 6.3417,5.48932 1.56838,2.48895 3.75047,4.39828 6.64856,5.6598 l 0.98876,0.37505 c 0.40914,-0.0341 1.05695,-0.10229 1.77294,-0.40914 0.98877,-0.37505 1.50019,-0.71601 1.56839,-0.88647 0.13637,-0.34096 0.0341,-1.19334 -0.20457,-2.48895 0,-1.43201 -0.0341,-2.35257 -0.23867,-2.8299 l 4.84151,2.0798 c 1.53428,-3.57999 1.94342,-6.78494 1.19333,-9.71712 6.64856,0.44323 11.3537,-2.69352 14.21769,-9.30798 l 0.85238,-1.97753 c 0.0682,-0.17047 0.13638,-0.81828 0.17047,-1.80704 0.20457,-0.92057 0.40915,-1.90933 0.51143,-3.06857 0.27277,-1.09104 0.37505,-2.0798 0.34095,-2.89808 0.17048,-0.92057 0.34096,-1.50019 0.47733,-1.84115 0.17048,-0.34094 0.54553,-0.71599 1.26152,-0.98875 0.92058,-0.23867 1.56839,-0.34096 1.97753,-0.34096 0.40914,-0.0341 1.22742,0.13639 2.31847,0.37505 1.26152,0.37505 2.42076,0.57962 3.5118,0.85238 1.36381,0.17048 2.59124,0.51143 3.68228,0.78419 1.09104,0.27276 1.80704,0.40914 2.148,0.57962 0.0682,-0.17048 0.0682,-0.34095 0.13638,-0.51143 0.30685,-0.27276 0.54552,-0.54552 0.64781,-0.716 0.44323,-1.02285 0.23866,-2.21618 -0.57962,-3.57999 -0.64781,-1.29561 -1.56838,-2.52304 -2.62533,-3.81866 -0.88647,-1.15924 -1.77295,-2.21619 -2.8299,-3.06856 -0.95467,-1.02286 -1.60247,-1.50019 -1.77295,-1.56838 4.70513,-0.61372 8.04646,-1.84114 10.02398,-3.58 2.21618,-1.87523 4.2278,-3.44361 6.06894,-4.8756 1.97752,-1.36381 4.33009,-2.1821 7.0577,-2.42077 2.96628,-0.30685 7.39865,0.71601 13.33122,3.27315 l 1.80704,-4.22781 c 0.10229,-0.17047 -0.17048,-0.75009 -0.95466,-1.70475 -0.54553,-1.05696 -1.53429,-2.28438 -2.79581,-3.61409 -1.05695,-1.29562 -2.21619,-2.45486 -3.5459,-3.61409 -1.05695,-1.26153 -2.04571,-2.31848 -2.89809,-3.10266 0,0 -0.34095,-0.17048 -1.19333,-0.54553 -0.57962,-0.47733 -1.15923,-0.81828 -1.50019,-0.95466 -2.72761,-1.19333 -5.48932,-1.80705 -8.38741,-2.04571 -2.65943,-0.34096 -5.38703,-1.12514 -8.08055,-2.31847 l -0.98877,-0.47733 c 1.67067,-1.09105 3.20495,-1.63658 4.70514,-1.80705 1.70475,-0.27276 3.34133,-0.40914 4.9097,-0.34095 1.84114,0 3.47771,-0.13638 4.9438,-0.30686 1.67066,-0.10228 3.34133,-0.64781 5.012,-1.73885 l -2.42076,-6.17123 c 0.0682,-0.17047 -0.54553,-0.61371 -1.84114,-1.3979 -1.19334,-0.92056 -2.72762,-1.87523 -4.50056,-2.86399 -1.73886,-1.15924 -3.58,-2.21619 -5.52342,-3.27314 -1.80704,-0.95466 -3.30723,-1.67067 -4.50057,-2.18209 l -2.72761,-1.29562 c -1.87523,-0.81828 -4.05733,-1.70476 -6.44399,-2.72761 -2.1139,-1.12514 -4.26189,-2.1139 -6.44398,-3.06856 l -5.93257,-2.59124 c -7.29636,-3.17085 -14.0813,-5.96665 -20.423,-8.52379 -4.73923,-2.01162 -9.95579,-3.75047 -15.71788,-5.21656 z m 36.7205,29.56051 c 0.716,0.17048 1.36381,0.47733 2.01162,0.75009 l 8.11465,3.40952 2.07981,0.92058 c 0.85237,0.34094 1.73885,0.88647 2.69352,1.46609 1.19332,0.54552 2.18209,1.02285 3.03447,1.3979 l 1.80704,0.71599 c -2.07981,1.50019 -3.57999,2.42077 -4.46647,2.62534 -0.64781,0.13637 -1.80704,-0.20457 -3.5118,-0.92058 l -2.55714,-1.15923 c -0.51142,-0.20457 -1.56837,-0.716 -3.20495,-1.63657 -1.60247,-0.88648 -3.37542,-1.84114 -5.18246,-2.8299 -1.70476,-1.12514 -3.37542,-2.21618 -5.012,-3.10266 -1.43199,-0.85238 -2.38666,-1.46609 -3.00037,-1.90933 2.69352,-0.34095 5.08018,-0.27276 7.19408,0.27276 z m 150.12104,71.02024 c -0.95467,2.21619 -0.98876,4.67104 -0.0682,7.26228 1.12514,2.48895 2.72761,4.97789 4.70513,7.43275 2.04571,2.31847 4.15961,4.26189 6.40989,6.06893 2.42076,1.84115 4.39828,3.13676 5.93257,3.78457 0.6819,0.30685 2.14799,0.85238 4.43236,1.63656 2.28438,0.78419 4.56876,1.36381 7.02361,1.80705 2.65943,0.34095 5.11427,0.34095 7.26227,0.0682 2.28438,-0.20457 3.78457,-1.02286 4.43237,-2.55714 0.0682,-0.17048 0.0682,-0.40914 -0.0341,-0.64781 0.13638,-0.34095 0.23867,-0.51142 0.23867,-0.51142 -5.38704,-5.72799 -11.76284,-10.43313 -19.02511,-14.1836 -7.22818,-3.71637 -14.35407,-7.15998 -21.30949,-10.16036 z m -30.51518,-6.37579 c -1.3638,-0.30686 -2.76171,-0.20458 -4.09142,0.44323 -1.70476,0.6819 -2.86399,1.97752 -3.68227,3.85276 l -1.05695,2.25028 c 0.10228,0.23867 0.30685,0.92057 0.51142,1.80704 0.47734,0.78419 0.78419,1.70476 1.12515,2.8299 0.54552,1.05695 1.09104,2.07981 1.46608,3.06857 0.47734,0.78419 0.68191,1.3979 0.78419,1.63656 0.0341,0.40914 -0.23866,1.02286 -0.85238,1.97753 -0.54551,0.78418 -1.05695,1.67066 -1.50018,2.69351 -0.75009,1.67067 -0.47733,3.30724 0.6819,4.80743 2.7958,-0.40915 5.08018,-0.68191 6.95542,-0.88648 1.90933,-0.17047 3.88685,0.17047 5.89846,1.05695 0.34095,0.13638 0.78419,0.37504 1.22743,0.75009 0.51143,0.23867 0.81828,0.34096 0.81828,0.34096 -2.93219,1.15923 -5.35294,2.21618 -7.12589,3.03447 -1.77295,0.85238 -3.13675,2.48894 -4.2278,5.04608 -0.57962,1.36381 -0.64781,2.8299 -0.0682,4.29599 0.75009,1.53429 1.70476,3.00038 2.86399,4.53466 1.22743,1.32971 2.55714,2.59123 4.05733,3.81866 1.53428,1.09105 2.89809,1.94343 4.09142,2.45485 1.50019,0.64781 3.00037,0.54553 4.36419,-0.27276 1.3638,-0.81828 2.52303,-1.97752 3.61408,-3.5459 1.22742,-1.46609 2.31847,-3.00037 3.23905,-4.63694 0.88647,-1.63657 1.77294,-2.864 2.52303,-3.71638 0.17048,0.0682 0.37505,0.0682 0.54553,0.13639 0.23866,-0.10229 0.47733,-0.10229 0.64781,-0.0341 1.70475,0.716 2.82989,1.73886 3.4777,3.03447 0.68191,1.29562 1.19334,2.79581 1.70476,4.43238 0.54553,1.43199 1.36381,2.8299 2.35257,4.26189 0.98876,1.432 2.69352,2.65942 5.08018,3.68228 l 3.5118,-8.08056 c 0.0682,-0.17047 -0.17047,-0.85238 -0.64781,-2.0798 -0.40914,-1.36381 -0.95466,-2.89809 -1.63656,-4.60285 -0.51144,-1.63657 -1.19334,-3.27314 -2.1139,-4.87561 -0.64781,-1.70476 -1.29562,-2.96628 -1.94343,-3.85275 -0.0682,-0.23867 -0.54552,-0.81829 -1.432,-1.60248 -0.78419,-0.95466 -1.77294,-1.77295 -2.82989,-2.62533 -0.95467,-1.02285 -1.90933,-2.0457 -2.96629,-2.89808 -0.78419,-0.95467 -1.32971,-1.56839 -1.56837,-1.87524 -0.71601,-0.716 -1.432,-1.53428 -2.21619,-2.45485 -0.78419,-0.95467 -1.19333,-1.4661 -1.09105,-1.63657 -0.34094,-1.56838 -0.37505,-2.7958 -0.0341,-3.64818 0.61371,-0.95467 1.02286,-1.67066 1.05695,-2.25029 0.30686,-0.6819 -0.0682,-1.46609 -0.92057,-2.25027 -0.716,-0.68191 -2.52304,-1.73886 -5.5916,-3.03448 l -2.8981,6.61446 c -1.3638,-0.57961 -2.42075,-1.3638 -3.23904,-2.31847 -0.54552,-1.05695 -1.15923,-2.0457 -1.90933,-3.17084 -0.47733,-1.19334 -1.19333,-2.31847 -2.18209,-3.34133 -0.716,-1.12514 -1.80705,-2.01161 -3.34133,-2.65942 -0.47733,-0.20457 -0.95466,-0.40914 -1.43199,-0.51143 z m 155.71265,67.44024 c -0.88647,-0.13637 -1.80704,-0.13637 -2.8299,-0.10228 -2.04571,0.13638 -3.5118,1.19333 -4.39828,3.23904 l -0.51142,1.05695 c 0.20457,0.51143 0.44323,1.15924 0.64781,2.07981 0.30686,0.71599 0.51142,1.09104 0.6819,1.15923 l 12.61521,0.30686 c 0,0 0,-0.13638 0.0682,-0.30686 0.34095,-0.23866 0.54552,-0.40914 0.61371,-0.57961 0.7501,-1.70476 0.51144,-3.03448 -0.6819,-3.95505 -1.05695,-0.85238 -2.25028,-1.60247 -3.61409,-2.18208 -0.78418,-0.34096 -1.67066,-0.57963 -2.59123,-0.71601 z M 291.87231,246.37505 c -6.27351,4.33009 -12.47883,8.83065 -18.47958,13.56988 1.36381,1.3979 2.52304,2.93219 3.40952,4.53465 1.63656,2.72762 1.84113,5.38704 0.75009,7.94418 -1.26152,2.864 -3.17085,4.60285 -5.86437,5.25066 -2.62533,0.47733 -5.45523,0.6819 -8.42151,0.57962 -3.00037,-0.0682 -5.83027,0.10228 -8.38741,0.40914 -2.48895,0.13638 -4.19371,1.3979 -5.21656,3.78456 l -0.37505,0.98876 c 0.0341,2.21619 1.22743,4.15961 3.71637,5.86437 2.55714,1.50019 4.90971,2.76171 6.95542,3.64818 1.70476,0.71601 2.62533,1.15924 2.72762,1.39791 0.34094,0.54552 1.22742,1.90933 2.59123,3.88685 1.50019,2.0798 2.86399,4.26189 4.2619,6.68265 1.53428,2.45485 3.00037,4.84151 4.29599,6.98951 1.32971,2.01161 2.25027,3.23904 2.59123,3.81866 0.20457,0.47733 0.61371,1.19333 1.432,2.148 0.95466,1.02285 1.60247,1.60246 1.87523,1.94342 0.17048,0.0682 0.34095,0.27276 0.61371,0.57962 0.51143,0.23867 0.78419,0.34095 0.78419,0.34095 1.26153,-2.89809 2.79581,-5.04608 4.63695,-6.47808 1.90932,-1.60248 3.44361,-3.78457 4.67103,-6.68265 0.88648,-2.04572 1.22743,-4.02324 1.05695,-5.89847 -0.0341,-1.80704 0.44324,-3.78457 1.32972,-5.83027 l 0.37504,-0.98877 8.83066,9.00113 c 0.71599,-0.68191 1.70475,-1.3979 3.00037,-2.04571 1.3638,-0.81828 2.69351,-1.70476 3.88685,-2.59123 1.3638,-0.81829 2.45485,-1.60248 3.40952,-2.38667 1.02285,-0.98875 1.67066,-2.04571 1.94342,-3.13675 0.0341,-0.98876 -0.64781,-2.55714 -1.90933,-4.70513 -1.29562,-2.18209 -2.76171,-4.36419 -4.43237,-6.51219 -1.4661,-2.21618 -2.86399,-4.1596 -4.19371,-5.76208 -1.32971,-1.56838 -1.90932,-2.28437 -1.90932,-2.28437 0.13637,-0.34096 0.23866,-0.61372 0.30685,-0.78419 0.34095,-0.27276 0.44323,-0.44324 0.44323,-0.44324 0.34096,-0.23866 0.92057,-0.78419 1.87524,-1.56837 1.19333,-0.92058 1.90933,-1.53429 2.04571,-1.87524 1.32972,-3.06856 1.46609,-5.59161 0.51143,-7.60323 -0.6819,-2.1139 -1.84114,-3.92094 -3.58,-5.48931 -1.73885,-1.56839 -3.64818,-3.00038 -5.69389,-4.296 -2.04571,-1.29561 -3.78456,-2.55713 -5.01199,-3.88685 -0.10228,-0.23867 -0.34095,-0.88648 -0.71599,-1.84114 -0.0341,-0.10229 -0.1023,-0.17047 -0.13639,-0.27276 z m 167.16863,63.38292 c 0.30685,0.0682 0.6819,0.23867 1.02285,0.37505 0.17047,0.0682 0.30686,0.20458 0.40914,0.44324 0.17048,0.0682 0.30686,0.17048 0.47734,0.23867 -1.46609,0.17047 -2.864,0.6478 -4.05733,1.56837 -1.19333,0.88647 -2.14799,1.87524 -3.00037,2.93219 0.0682,-0.17048 0.0341,-0.47733 0.0341,-0.88648 0.20457,-0.51143 0.40914,-0.95467 0.54552,-1.29561 0.61371,-1.32972 1.36381,-2.28438 2.25029,-2.8981 0.6478,-0.47733 1.39789,-0.71599 2.31847,-0.47733 z m 395.98131,109.17274 c -0.71599,-0.27276 -1.43199,-0.37504 -2.18209,-0.51143 -1.26152,-0.34095 -2.48895,-0.23866 -3.71637,0.23867 -1.02285,0.54553 -1.94342,1.67067 -2.65943,3.34133 -0.17047,0.34095 -0.44323,0.92057 -0.81828,1.77295 -0.13638,0.75009 -0.20457,1.32971 -0.34095,1.67066 0.78419,0.54552 2.148,1.29562 4.12552,2.35257 1.94342,1.02286 3.95504,2.18209 6.00075,3.4777 2.31847,1.19334 4.39828,2.31848 6.37579,3.37543 0.54553,0.30685 0.716,0.30685 1.19333,0.54551 -1.73885,-5.11427 -3.71637,-10.09216 -5.65979,-15.10415 -0.13639,-0.0341 -0.23867,-0.13638 -0.37505,-0.20457 -0.64781,-0.37505 -1.26153,-0.716 -1.94343,-0.95467 z M 458.25675,317.15663 c 1.19333,0.51142 1.3979,1.53428 0.71599,3.06856 -0.57961,1.32971 -1.46609,1.77295 -2.65942,1.26153 -1.19333,-0.51144 -1.50018,-1.432 -0.88647,-2.79581 0.64781,-1.53428 1.63656,-2.04571 2.8299,-1.53428 z m 305.97007,93.8981 c -9.37618,-2.69352 -18.10454,-3.06857 -26.1851,-1.12515 -10.73998,2.42077 -21.37767,8.08056 -32.08356,16.94531 l -0.37504,1.02285 c -0.44324,1.02286 -0.47734,2.35257 0.0341,3.95504 0.75009,1.53429 1.70476,3.17086 2.7617,4.84151 1.09105,1.67067 2.31847,3.13676 3.5459,4.50057 1.46609,1.22742 2.72762,2.1139 3.71637,2.55713 l 0.98876,0.47734 c 0.57962,0.0341 1.53428,0.0341 2.76171,-0.0341 1.4661,-0.17048 2.31848,-0.27277 2.48895,-0.20457 0,0 -0.0341,-0.0341 0.0682,-0.20457 0.30685,-0.27277 0.51142,-0.57962 0.6819,-0.92058 0.51143,-1.19333 0.716,-2.55713 0.54553,-4.05732 -0.17048,-1.46609 -0.44324,-3.03447 -0.95467,-4.67104 -0.34095,-1.53428 -0.61371,-3.03447 -0.78419,-4.50056 -0.0682,-1.67066 0.20457,-3.20494 0.85238,-4.73923 l 1.36381,-3.37542 c 1.80704,-0.0341 5.31885,-0.0682 10.43312,-0.27277 5.28475,-0.13637 10.70589,-0.40914 16.33159,-0.78418 5.69389,-0.57962 10.87636,-1.29562 15.4792,-2.1139 4.63695,-1.02286 7.29637,-2.28438 7.97828,-3.81866 -3.27314,-1.39791 -6.54628,-2.59123 -9.64894,-3.47771 z m 91.51144,44.80105 c -3.13676,-0.88647 -6.54628,-1.29561 -10.39903,-1.15923 -4.9438,0.30685 -9.9217,0.81828 -14.8655,1.53428 -4.90971,0.6819 -9.58074,1.22743 -14.01311,1.70476 -4.46647,0.51142 -7.94418,0.27276 -10.50132,-0.85238 l -1.05695,2.28437 c -0.6478,1.50019 -0.95467,2.93219 -0.88647,4.15962 0.30685,1.12514 1.19333,2.52304 2.52304,4.09142 l -1.05695,-0.51143 c -1.70475,-0.716 -3.13675,-1.70476 -4.36418,-3.03447 -1.15923,-1.53429 -2.69352,-2.76171 -4.56875,-3.5459 -1.19334,-0.51143 -2.148,-0.37505 -2.864,0.30685 -0.44324,0.61372 -0.88648,1.26153 -1.43199,2.04572 -0.51144,0.78419 -1.09105,1.56837 -1.60248,2.31847 -0.47733,0.61372 -1.26152,0.716 -2.28437,0.27276 -0.17048,-0.0682 -0.34096,-0.13638 -0.68191,-0.30685 -0.27276,-0.30686 -0.44324,-0.57962 -0.37504,-0.7501 -0.0682,-0.23866 -0.0341,-0.75009 0.10228,-1.50019 0.10229,-0.75009 0.23866,-1.46609 0.37505,-2.21618 0.20457,-0.92058 0.20457,-1.67067 0.27276,-2.25029 0.13638,-0.75008 0.17047,-1.15923 0,-1.22742 l -0.716,-0.61371 c -1.36381,-0.61371 -2.45486,-0.54553 -3.34133,0.0682 -0.88647,0.64781 -2.07981,0.57961 -3.61409,-0.0682 -1.19332,-0.54553 -1.97752,-1.19333 -2.45485,-2.01162 -0.44323,-0.78419 -0.88647,-1.67067 -1.26152,-2.65942 -0.37505,-0.95467 -0.85238,-1.84114 -1.46609,-2.69352 -0.47733,-0.81829 -1.3638,-1.50019 -2.55714,-2.01161 -2.35257,-1.02286 -4.39828,-0.95467 -6.13713,0.30685 -1.53428,1.15924 -3.10266,2.65943 -4.80742,4.33008 -1.73885,1.67067 -3.5459,3.06858 -5.45523,4.2619 -1.70476,1.09105 -3.85275,1.02286 -6.40989,-0.0682 l -22.12776,-9.51254 c -0.61372,1.3638 -0.57963,2.86399 0.0682,4.56875 0.85238,1.77294 1.60247,3.03446 2.04571,3.85275 -0.81828,-0.37505 -2.42076,-0.85238 -4.53466,-1.56838 -2.1139,-0.716 -4.39827,-1.3979 -6.92131,-2.0798 -2.28438,-0.7842 -4.46647,-1.4661 -6.64856,-2.01161 -2.1139,-0.71601 -3.68228,-1.15925 -4.60285,-1.36382 -3.92095,-0.6819 -7.97827,-0.40914 -12.13788,0.81829 -3.92095,1.12514 -7.8078,1.67066 -11.79694,1.53428 1.70476,-2.0798 2.52305,-3.98913 2.42077,-5.6257 0.13637,-1.73885 -0.23867,-3.27313 -1.29562,-4.53466 -0.98876,-1.46609 -2.42076,-2.62533 -4.02323,-3.5459 -1.56838,-1.05695 -3.06857,-1.87524 -4.60285,-2.55714 -2.35257,5.42114 -5.01199,9.2057 -8.11465,11.28551 -3.06857,1.90933 -6.13713,3.06856 -9.10341,3.37542 -2.72762,0.23867 -5.14837,0.27276 -7.29636,0.13638 -2.11391,-0.30686 -3.40952,0.17047 -3.92096,1.36381 l -1.56837,3.78456 c -4.39828,-1.90933 -7.0577,-3.95504 -7.7396,-6.06894 -0.61372,-2.28438 0.23866,-5.96666 2.42075,-11.04684 l 19.36606,8.42151 c 1.19333,0.51143 2.01161,0.23867 2.62533,-0.716 0.61371,-0.95466 1.12514,-1.84113 1.50019,-2.69351 0.51142,-1.19334 0.75009,-2.04572 0.81828,-2.62533 0.13638,-0.78419 -0.30686,-1.67067 -1.26152,-2.69352 l -23.76433,-28.02623 c -1.15925,-4.33009 -2.8981,-7.46685 -5.14837,-9.23979 -2.07981,-1.70476 -4.9779,-3.27315 -8.69428,-4.87561 -5.45522,-2.35257 -11.42187,-3.40952 -17.86586,-2.96628 -6.27352,0.51142 -12.61522,1.90933 -19.19558,4.09141 -6.34171,2.11391 -12.47884,4.87562 -18.34321,8.18284 -5.76208,3.13676 -10.80817,6.30761 -15.03597,9.51256 -0.88647,-1.19333 -2.8299,-1.39791 -5.83028,-0.47733 -2.93218,0.75009 -6.13712,2.0798 -9.54664,3.81866 -3.13676,1.67066 -6.10304,3.57999 -9.03522,5.72798 -2.76171,2.25029 -4.39828,3.88686 -4.9097,5.08019 -2.55714,5.93256 -3.78457,11.45598 -3.58,16.57025 0.27276,4.9779 3.27314,9.23979 9.03522,12.7175 -3.17085,0.85238 -5.65979,2.48895 -7.50094,4.9438 -1.87523,2.42075 -3.00037,5.18246 -3.40951,8.4556 -5.38704,-0.10229 -9.44437,0.27276 -12.20608,1.09105 -2.69352,0.64781 -5.25065,1.50019 -7.56912,2.72761 -2.1139,1.09105 -4.63695,2.42076 -7.43275,3.81866 -2.59123,1.32971 -6.3417,2.52304 -11.3196,3.81866 -2.1139,0.6819 -4.36418,1.05695 -6.78494,1.02285 -2.38666,-0.0341 -4.73923,-0.0341 -7.15998,-0.0682 -2.38666,-0.0341 -4.80742,0.10228 -7.19408,0.47733 -2.11391,0.30686 -4.19371,1.05695 -6.10303,2.21619 -0.0341,0.98875 0.37503,2.0457 1.19332,2.96628 0.95467,1.02285 1.94342,1.94342 3.00038,2.7958 1.02285,0.85238 2.01162,1.53428 2.93218,2.148 0.95466,0.61371 1.67067,1.05695 2.01161,1.19332 -0.88647,0.61372 -1.29561,1.50019 -1.12513,2.55714 0.30685,1.15924 0.6819,2.31848 1.09104,3.71638 0.64781,1.29562 1.12514,2.69351 1.53428,4.05732 0.47734,1.22743 0.54553,2.31847 0.10229,3.34133 -1.19333,2.72761 -3.23904,4.12551 -6.13713,4.29599 -2.8299,0 -5.89846,-0.54552 -9.27388,-1.60247 -3.13676,-1.15924 -6.20533,-2.42076 -9.2739,-3.71638 -2.96627,-1.50019 -5.28474,-2.31847 -7.0577,-2.45485 -0.44323,0.57962 -1.22742,1.67067 -2.28437,3.23904 -0.92057,1.60248 -1.97752,3.27314 -3.13676,4.9779 -0.88647,1.63657 -1.73885,3.30723 -2.65942,4.9097 -0.81828,1.46609 -1.432,2.52304 -1.73885,3.20495 l -0.40914,1.09104 c -2.48895,5.76209 -3.10267,9.98989 -1.87524,12.71751 1.22743,2.7617 3.78456,4.94379 7.70551,6.61446 l 8.69427,3.78456 c 0.51143,0.20457 1.70475,0.78419 3.71637,1.67066 2.1139,0.71601 3.44361,1.15924 3.95504,1.39791 3.68228,-0.61372 6.75085,-1.90933 8.96703,-3.75048 2.45486,-1.97751 4.56876,-4.02323 6.51218,-6.20532 1.94343,-2.18209 3.78456,-4.36417 5.48932,-6.44398 1.94342,-2.18209 4.26189,-3.81866 6.95542,-4.87561 2.72761,-1.22742 6.06893,-1.67067 9.95578,-1.36381 3.92095,0.27276 8.93294,1.73886 15.03598,4.36418 l 1.02285,0.40914 c -0.51143,0.17048 -1.32971,1.02286 -2.55713,2.48895 -1.26152,1.50019 -2.148,2.55714 -2.62534,3.17086 l -0.37504,0.98875 -0.51143,1.09105 c -0.20457,0.92057 -0.51142,2.0798 -0.98876,3.68228 -0.27276,1.50019 -0.57961,3.06856 -0.98876,4.50056 -0.27276,1.50019 -0.47733,2.79581 -0.7501,3.88685 -0.27276,1.09105 -0.40913,1.67067 -0.47733,1.84114 0,0.40914 0,0.92057 0.10229,1.56838 0.30686,0.75009 0.64781,1.26152 0.92057,1.56837 2.07981,0.30687 3.78457,-0.13638 5.11428,-1.3638 1.50018,-1.15924 2.62532,-2.62533 3.40951,-4.50056 1.05696,-1.94342 1.84114,-3.95505 2.25028,-5.79618 0.54553,-1.77296 0.85238,-2.93219 0.98876,-3.68229 0.34096,1.53429 1.19334,3.17086 2.62533,5.012 1.60248,1.87524 3.13676,3.85275 4.46647,5.83027 1.60248,1.90933 2.864,3.85276 3.88685,5.6939 1.02285,1.84113 1.19333,3.4777 0.51143,5.01199 -0.716,1.67066 -2.1139,2.35256 -4.19371,2.04571 -1.90933,-0.20457 -3.5118,-0.10229 -4.73923,0.37504 0,0 -0.13638,0.17048 -0.44323,0.44324 -0.0682,0.17047 -0.17048,0.30686 -0.23867,0.47734 -0.0682,0.17047 -0.17048,0.44323 -0.30686,0.78418 0,0.40914 0.0341,0.68191 0.0341,0.68191 0.17048,0.47733 0.92058,1.63656 2.1139,3.54589 1.26153,1.77295 2.01163,2.96628 2.38667,3.51181 0.75009,-0.85238 2.21619,-2.01162 4.19371,-3.37542 2.0798,-1.53429 4.1937,-2.72762 6.44398,-3.78457 2.48895,-1.12514 4.70513,-1.90933 6.68265,-2.28438 2.21619,-0.44324 3.75048,-0.17047 4.53466,0.78419 0.81828,0.95467 1.32972,2.42076 1.432,4.46647 0.20457,1.90933 0.10229,3.95504 -0.17048,6.03484 -0.30685,2.07981 -0.78418,3.95505 -1.32971,5.72799 -0.40914,1.84115 -0.75009,3.10267 -1.02286,3.78457 0.27277,0.30685 0.88649,0.78418 1.84115,1.3979 1.15923,0.51143 1.90933,0.88647 2.25028,1.02286 2.52304,1.12513 4.50056,1.19333 5.86437,0.37504 1.53428,-0.75009 2.69352,-2.01162 3.40952,-3.71638 0.98876,-1.77294 1.73885,-3.71637 2.25027,-5.89845 0.61372,-2.35257 1.26152,-4.36419 1.97753,-6.06895 l 6.44399,2.72762 c -1.39791,3.20494 -2.65943,6.27351 -3.64819,9.03522 -0.78419,2.69352 -1.02285,5.25065 -0.88647,7.73961 0.37504,2.35256 1.43199,4.60284 3.20495,6.58036 1.90932,2.04571 4.97789,3.88685 9.06931,5.6598 l 0.95466,0.47733 c 0.40914,-0.0341 1.26152,-0.13638 2.48895,-0.20457 1.50019,-0.17048 2.42075,-0.17048 2.76171,-0.0341 1.3638,0.57963 1.84114,1.70476 1.53428,3.40952 -0.34095,1.67067 -0.78419,3.10266 -1.29562,4.2619 l -0.44323,1.32971 c 1.19333,0.51143 2.18209,0.61371 3.06856,0.37505 0.98876,-0.37505 1.73886,-0.81829 2.35257,-1.32971 0.88648,-0.64781 1.84114,-1.19334 2.72761,-1.80705 0.92057,-0.81829 1.97752,-1.3638 3.03447,-1.50019 -0.13637,0.34096 -0.54552,1.19334 -1.12514,2.55714 -0.40914,1.432 -0.78419,2.42075 -1.02286,2.93219 l -1.87522,4.56875 c -1.12515,2.52304 -2.72762,4.97789 -4.73924,7.33046 -1.97752,2.18209 -4.33008,2.69352 -7.0577,1.50019 -5.93255,-2.55714 -11.45597,-5.83028 -16.74073,-9.9217 -5.11427,-4.02323 -10.70588,-7.43275 -16.80891,-10.05807 -0.85238,-0.37505 -2.148,-0.75009 -3.75047,-1.22743 -1.36381,-0.57961 -1.97752,-0.88647 -1.97752,-0.88647 -0.57962,-0.0341 -1.60248,-0.0341 -2.93219,0.20457 -1.12514,0.34095 -2.28438,0.81828 -3.57999,1.46609 -1.22743,0.47733 -2.48894,1.09104 -3.78456,1.73885 -1.05695,0.54553 -1.77296,1.09105 -2.1821,1.50019 -3.61408,-4.15961 -6.95541,-7.84189 -10.05807,-10.97864 -3.00038,-3.30724 -5.31885,-6.58037 -7.15999,-9.78532 -1.84114,-3.20494 -2.93218,-6.58037 -3.23904,-10.12626 -0.20457,-3.71638 0.81829,-8.11465 3.03447,-13.19483 -6.61446,-2.864 -14.14949,-5.55752 -22.57101,-7.97827 -8.18283,-2.52305 -15.61558,-4.43238 -22.29823,-5.6939 -0.34095,-0.13638 -1.15924,-0.17048 -2.42076,-0.10228 -1.15924,-0.10229 -2.52304,-0.0341 -3.98914,0.13637 -1.432,0 -2.7958,-0.0341 -4.1937,-0.0341 -1.15924,-0.10228 -1.87523,-0.23866 -2.21619,-0.37505 -0.17048,-0.0682 -0.57962,-0.40913 -1.19332,-0.88647 -0.37505,-0.54552 -0.88649,-1.02285 -1.4661,-1.50019 -0.54553,-0.61371 -1.05695,-1.19332 -1.67066,-1.63656 -0.51143,-0.64781 -0.85238,-0.98876 -1.02286,-1.05695 l -2.38666,-0.98877 -1.97752,-0.85237 c -3.27314,0.98876 -6.75085,2.25028 -10.39903,3.68227 -3.54589,1.29562 -6.64856,3.30724 -9.2057,6.03485 l -10.84226,13.05845 c -0.54552,0.37504 -1.80704,1.02285 -3.81866,1.94343 -1.77295,0.85238 -3.81865,1.84113 -6.06894,2.89808 -2.1139,1.09105 -4.12551,2.148 -6.13713,3.06857 -1.94343,0.78419 -3.10266,1.3979 -3.47771,1.84114 -1.12514,0.716 -2.69351,1.94342 -4.63694,3.71638 -1.97752,1.73885 -3.95504,3.57998 -5.83028,5.5916 -1.80704,1.84114 -3.44361,3.64819 -4.97789,5.38704 -1.50019,1.56837 -2.42075,2.65942 -2.62533,3.13676 l -17.69539,41.05058 c 0.88647,3.98913 1.50019,8.42151 1.77294,13.36531 0.51144,4.87561 1.36382,9.64893 2.52305,14.38816 1.19333,4.73923 2.96628,9.20569 5.25066,13.22892 2.55714,3.92095 6.20532,6.85313 10.94455,8.89885 4.43237,1.90933 7.80779,3.23904 10.26264,4.09142 2.52305,0.71599 4.63694,1.15923 6.4099,1.29561 1.80704,0 3.68227,-0.20457 5.65979,-0.54552 2.04572,-0.54552 4.9438,-1.15924 8.62608,-1.77295 0.17047,0.0682 0.47734,0.27276 0.98876,0.47733 0.57962,0.0682 1.02286,0.13638 1.36381,0.27277 1.36381,0.57961 2.31847,1.3979 2.86399,2.42075 0.64781,0.88648 0.54552,2.28438 -0.44323,4.09142 0.44323,0.37505 1.15923,1.05695 2.28437,2.148 1.3979,1.02285 2.76171,2.14799 4.09143,3.30723 1.53428,1.09105 2.86399,2.0798 3.98912,3.17085 1.39791,1.02285 2.28438,1.80705 2.72762,2.1821 l 1.29562,0.47733 c 1.53428,0.6478 2.96628,1.05695 4.36418,1.05695 1.63657,-0.10229 3.47771,0.20457 5.35294,0.98875 -1.90932,4.43238 -3.98913,8.55789 -6.17122,12.24018 -2.21619,3.68227 -4.22781,7.60321 -6.06895,11.83102 l -1.26152,3.10265 c -0.0682,0.57962 -0.10228,1.90933 0.0341,3.95505 0.10229,2.0798 0.30686,4.26189 0.54553,6.54627 0.20457,2.31847 0.30685,4.46646 0.44324,6.54627 0.10228,2.04571 0.17047,3.40952 0.13638,3.98914 0.0682,0.23866 -0.10229,1.67066 -0.61371,4.2619 -0.44324,2.42075 -1.02286,5.25065 -1.67067,8.59198 -0.64781,3.34132 -1.29561,6.71674 -1.94342,10.09217 -0.64781,3.34133 -1.15924,6.10304 -1.432,8.21693 l -0.37505,0.98876 c -2.01161,4.56876 -4.70513,8.86475 -8.21693,12.78569 -3.44362,3.75047 -6.23942,8.04647 -8.35332,12.99027 -0.7501,1.67065 -1.02286,3.37541 -0.92057,5.04608 0.0682,1.63657 0.23867,3.27314 0.51143,4.97789 0.51142,1.63657 0.95466,3.34133 1.3979,5.11428 0.47733,1.63657 0.78419,3.37542 0.78419,5.18247 -0.10229,5.42113 -0.64781,10.43312 -1.63657,15.03597 -0.88648,4.43237 -1.80705,8.93293 -2.72761,13.3653 -0.88648,4.46647 -1.73885,9.10341 -2.45486,14.01312 -0.64781,4.77332 -0.81828,10.12626 -0.57961,16.09292 0.13637,2.45485 0.44324,4.05732 0.88647,4.87561 0.61372,0.85238 1.70476,1.73885 3.40952,2.45485 7.29637,3.17085 14.35407,4.50057 20.96853,4.12552 6.61446,-0.37505 12.78569,-1.73885 18.68415,-4.22781 5.96666,-2.65941 11.55826,-6.06893 16.77483,-10.26264 5.42113,-4.09142 10.60359,-8.35332 15.4792,-12.7175 l 3.03447,-1.36381 c 0.40914,-0.0341 1.36381,0 2.69352,0.17048 1.56838,0.0682 2.38666,0.0341 2.52305,-0.30685 2.14799,-1.29562 3.95503,-2.96629 5.42113,-4.94381 1.46609,-1.97752 2.86399,-3.98913 4.1596,-6.03485 1.36382,-2.25027 2.79581,-4.39827 4.2619,-6.37579 1.63657,-1.90933 3.68228,-3.57999 6.10304,-4.9779 1.50019,-0.75009 3.17085,-1.32971 5.04608,-1.94342 2.1139,-0.6819 4.15962,-1.432 6.10304,-2.21618 2.1139,-0.68191 3.88685,-1.67067 5.42113,-2.82991 1.67067,-1.09104 2.93219,-2.69351 3.78457,-4.70513 l 16.80892,-38.93669 c 1.84113,-4.26189 4.63694,-7.7396 8.28512,-10.60359 3.64818,-2.8299 7.73961,-5.45523 12.34245,-7.67142 4.67104,-2.42075 9.58075,-4.60285 14.69503,-6.64855 5.35294,-2.11391 10.39902,-4.46647 15.13825,-7.0577 4.84151,-2.72762 9.10341,-5.79618 12.99026,-9.17161 3.85275,-3.37542 6.95542,-7.56912 9.13751,-12.6493 0.81828,-1.87524 1.22742,-3.54591 1.22742,-4.9779 0.17048,-1.32971 -0.81828,-2.42076 -2.864,-3.30723 -2.86399,-1.22743 -5.72798,-1.97752 -8.66016,-2.21618 -2.8981,-0.27277 -5.89847,-1.09105 -8.93294,-2.42077 -0.51142,-0.23866 -1.84114,-0.71599 -3.88685,-1.60247 -1.77294,-0.98876 -3.00037,-1.56837 -3.68228,-1.87523 -0.10229,-0.64781 -0.27276,-1.70476 -0.51143,-3.00038 -0.0682,-1.26152 -0.27276,-2.48894 -0.51142,-3.78456 0,-1.432 -0.0682,-2.864 -0.30686,-4.15961 -0.23867,-1.32971 -0.40914,-2.148 -0.44324,-2.55714 -0.0682,-0.23867 -0.34095,-0.85238 -0.92057,-1.90933 -0.47733,-1.19333 -1.05695,-2.62533 -1.63657,-4.09142 -0.57961,-1.46609 -1.09104,-2.72762 -1.56837,-3.95504 -0.51143,-1.22742 -0.78419,-2.01162 -0.78419,-2.42076 -0.88648,-3.98913 -0.92057,-8.18284 -0.27277,-12.54702 0.92057,-4.43237 1.29562,-8.69427 1.05696,-12.85388 -0.10228,-0.23867 -0.34095,-0.88648 -0.68191,-2.04571 -0.30685,-1.12514 -0.61371,-2.31847 -0.92056,-3.44361 -0.23867,-1.32971 -0.57962,-2.52304 -0.88648,-3.68228 -0.30686,-1.12514 -0.44324,-1.90933 -0.47734,-2.31847 0.0682,-0.17048 0.34096,-1.02286 0.7501,-2.45486 0.61372,-1.32971 1.09105,-2.38666 1.432,-3.23904 0.17047,-0.34095 0.54552,-1.19333 1.15924,-2.55713 0.81828,-1.4661 1.22742,-2.38666 1.39789,-2.72762 -0.13637,3.98914 -0.0341,7.7737 0.23867,11.3196 0.51143,3.44361 1.09105,6.92132 1.60248,10.36493 0.78419,3.37542 1.53428,6.92132 2.31847,10.67179 0.85238,3.61409 1.67066,7.43274 2.48894,11.62645 0.37505,1.94343 0.44324,4.29599 0.10229,6.95542 -0.34096,2.69352 -0.6819,5.42113 -0.88647,8.14875 0,2.8299 0.40914,5.38703 1.02285,7.67141 0.64781,2.28437 2.18209,3.92094 4.70514,5.04608 1.87522,0.78419 4.84151,1.29562 8.76246,1.56838 3.95503,0.10229 8.31921,0.0341 13.09254,-0.30686 4.77332,-0.37504 9.75121,-1.05695 15.00187,-2.01161 5.25066,-0.95467 10.09217,-2.21619 14.55864,-3.68228 4.67104,-1.43199 8.59198,-3.06856 11.86512,-5.08018 3.44362,-1.94342 5.79619,-4.05732 6.81903,-6.44399 0.51144,-1.19333 0.57962,-2.45485 0.34096,-3.75047 -0.23867,-1.3297 -0.716,-2.62532 -1.3638,-3.92094 -0.47735,-1.22743 -0.81829,-2.48895 -1.05696,-3.81866 -0.17047,-1.46609 0.13638,-3.00037 0.78419,-4.53466 l 0.85238,-1.97752 2.42076,6.17123 1.12514,0.40914 1.26152,0.57962 9.64893,1.50019 1.97752,0.85238 c 4.90971,2.1139 9.30799,4.70513 13.02436,7.70551 3.88684,3.10265 6.92131,7.09179 9.20569,12.10378 l -3.03447,1.50018 c 0.57962,1.87524 1.29562,3.64819 2.148,5.42114 0.85238,1.77295 2.18209,3.37542 3.81866,4.67104 -0.13638,0.78418 -0.27276,2.04571 -0.51143,3.95504 -0.0682,2.01161 -0.23867,4.05732 -0.34095,6.20532 -0.13638,2.14799 -0.23866,4.2619 -0.44324,6.17123 0,1.80704 0.0682,3.03446 0.20458,3.68227 0,1.84115 -0.0682,5.11428 -0.13639,9.9217 0.10229,4.8756 0.23867,9.8876 0.47733,15.00188 0.34096,5.21655 0.85238,9.88759 1.50019,13.97901 0.64781,4.12552 1.56838,6.44399 2.76171,6.95542 2.55714,1.09105 5.11427,0.81828 7.60323,-0.716 2.45484,-1.56838 4.70513,-3.71637 6.71674,-6.47808 2.148,-2.69352 4.09142,-5.48933 5.83027,-8.55789 1.73886,-3.10266 3.10267,-5.59161 4.09143,-7.39866 2.28437,0.7842 5.08017,0.30687 8.4556,-1.46608 3.61409,-1.87524 7.50094,-3.88686 11.69465,-6.10304 4.36417,-2.148 8.79655,-4.15961 13.43349,-6.00075 4.77333,-1.73885 9.44437,-2.28438 14.04721,-1.70476 l 2.48895,6.20532 c 0.34095,1.12514 0.51142,3.00038 0.57962,5.6598 0.0682,2.65943 0,5.21656 -0.10229,7.8078 0.0341,2.62532 0,4.97789 -0.23867,6.88722 -0.0341,1.97752 -0.0341,2.96628 0,2.96628 0.23867,0.30685 0.88648,0.78419 1.80705,1.3979 0.95466,0.61371 1.90932,1.22742 3.03447,1.90933 1.09105,0.68191 2.148,1.32972 3.10266,1.94343 0.95467,0.6137 1.56838,1.05695 1.84114,1.3638 0.0341,0.40915 -0.10229,1.12514 -0.37505,2.21619 -0.27276,1.09104 -0.64781,2.35256 -0.98876,3.61408 -0.17047,1.32971 -0.37504,2.62533 -0.716,3.88685 -0.27276,1.09105 -0.40914,1.80705 -0.37505,2.2162 0,0 0.20458,0.51142 0.61372,1.50018 0.44323,0.78418 0.64781,1.29562 0.57962,1.4661 0.13638,0.30685 0.17048,0.88647 0.23866,1.60246 44.42601,-44.76695 78.14613,-101.36494 95.77334,-166.589 17.59311,-65.18997 16.97939,-130.95955 1.19333,-191.95581 -0.47733,0.23866 -0.92057,0.51142 -1.43199,0.71599 -1.77296,0.85238 -3.81866,0.7842 -6.00075,-0.17047 -1.36382,-0.57962 -2.07981,-1.26153 -2.28438,-2.18209 -0.17048,-1.05695 -0.81829,-1.87524 -2.01162,-2.38666 -0.98876,-0.44324 -2.0798,-0.7842 -3.13675,-1.09105 z m -405.42569,-106.41103 -0.85238,-0.13638 -10.39903,5.79618 6.61447,2.89809 c -1.53428,0.75009 -2.62533,1.53429 -3.40952,2.38667 -0.51142,0.78418 -1.15923,1.80704 -1.73885,3.17084 -0.57962,1.36381 -0.51143,3.00038 0.17047,4.70514 0.75009,1.53428 1.70476,3.00037 2.864,4.50056 1.3979,1.432 2.8299,2.79581 4.33009,4.05733 1.70476,1.12514 3.10265,1.87523 4.12551,2.31846 1.15923,0.51144 2.62533,1.05695 4.39827,1.63658 2.01162,0.47733 3.95505,0.6819 5.76209,0.6819 2.01162,0.0341 3.75047,-0.37505 5.28475,-1.12514 1.70476,-0.6819 2.96628,-1.84114 3.71637,-3.5118 0.95467,-2.21619 1.29562,-4.2278 1.09105,-6.10304 -0.0341,-1.84114 -0.37504,-4.09142 -1.02285,-6.81903 -1.84114,-0.37505 -4.33009,-1.29562 -7.56913,-2.69352 -1.87523,-0.78419 -3.44362,-1.50019 -4.63694,-2.01162 -1.12515,-0.6819 -2.04572,-1.22743 -2.82991,-1.77294 -0.17047,-0.0682 -0.51142,-0.40915 -1.05694,-1.05696 -0.44324,-0.78419 -0.98876,-1.63657 -1.60248,-2.52304 -0.47733,-0.81829 -0.98876,-1.53428 -1.53428,-2.18209 -0.27276,-0.716 -0.37505,-1.19333 -0.47733,-1.46609 0,0 -0.27277,0 -0.61371,-0.13639 -0.10229,-0.27276 -0.27277,-0.47733 -0.61372,-0.61371 z m -205.32112,-55.0296 c -0.57962,-0.17048 -1.09104,-0.20458 -1.60248,-0.20458 -0.92056,-0.20457 -2.25027,-0.10228 -4.05732,0.34096 -3.13675,6.3076 -6.40989,11.86511 -9.68303,16.67254 -3.30722,4.84151 -6.20532,10.26265 -8.86474,16.39977 l -7.60322,-3.27313 c -0.51143,1.19333 -0.68191,2.65942 -0.40915,4.39828 0.51144,1.63656 1.60248,2.25027 3.30724,2.01161 -3.30724,1.15924 -6.13713,3.17085 -8.55789,5.96665 -2.1821,2.69353 -3.98914,5.45523 -5.48932,8.45561 -0.13639,0.34095 -0.54553,0.37504 -1.22743,0.10228 -1.36381,-0.61371 -1.87524,-1.77294 -1.4661,-3.61409 0.34096,-1.60247 0.7842,-3.5118 1.22743,-5.38703 -22.23005,31.12889 -39.95954,66.11053 -52.13151,104.33122 1.84114,-0.34095 3.71637,-0.6819 5.52341,-0.81828 2.72762,-0.23867 5.25066,-0.716 7.7737,-1.432 0,0 0.85238,-0.6819 2.42076,-2.01161 1.60247,-1.32971 3.37543,-2.72762 5.25065,-4.29599 2.148,-1.70476 3.95505,-3.27315 5.55752,-4.60286 1.80705,-1.39789 2.76171,-2.28437 2.89809,-2.62532 2.01161,-2.76171 4.63695,-4.84152 7.87599,-6.23942 3.23904,-1.432 6.34169,-2.48895 9.20569,-3.03447 2.86399,-0.57962 5.28475,-0.88648 7.33046,-1.02285 2.31847,-0.20457 3.51181,-0.54553 3.68228,-0.88648 0.13638,-0.34095 0.13638,-1.12514 -0.10228,-2.45485 -0.17048,-1.4661 -0.23867,-2.38666 -0.23867,-2.8299 l 0.37504,-0.98876 0.51143,-1.05696 c 3.58,-2.28436 7.63732,-3.27313 12.20607,-3.10265 4.63695,-0.0341 8.66017,0.13638 12.06969,0.61371 l -2.86399,6.61447 18.75235,-2.1139 c -0.30686,-1.15925 -0.85238,-2.25029 -1.67067,-3.20495 -0.716,-1.12514 -1.432,-2.1139 -2.04571,-3.00038 -0.64781,-0.85237 -1.09105,-1.73885 -1.46609,-2.69352 -0.40914,-0.98875 -0.30686,-2.21618 0.27276,-3.57999 0.61372,-1.36381 1.26153,-2.148 2.01161,-2.45485 0.716,-0.27276 1.39791,-0.30686 2.148,-0.17048 0.98876,0.0341 1.90933,0 2.76171,-0.0341 0.81828,-0.0341 1.70476,-0.44324 2.59123,-1.05695 l 0.37505,-0.98876 c 0.37505,-0.85238 0.64781,-1.70476 0.78419,-2.45485 0.37504,-0.85238 0.64781,-1.4661 0.85238,-1.97752 0.37504,-0.85238 0.85238,-1.32971 1.46609,-1.26152 0.75009,0.13638 2.01162,0.44323 3.85275,0.81828 2.01162,0.47733 3.40952,0.78419 4.15962,0.92057 0.47733,0.10229 0.81828,0.13638 0.95466,0.13638 0,-0.0341 0,-0.10229 -0.0682,-0.13638 l 12.61521,0.30686 1.15924,0.54552 1.12514,0.40914 c -3.06856,3.30723 -6.68265,6.10304 -10.87636,8.31922 -4.09142,2.07981 -7.91008,4.63695 -11.45598,7.73961 l 10.67179,4.63694 0.44324,5.31885 12.13788,5.25065 c 0.37505,-0.85238 0.88647,-2.28437 1.432,-4.46647 0.54552,-2.18209 0.85238,-3.85275 0.85238,-4.84151 0.0682,-0.17047 -0.13639,-0.85238 -0.44324,-2.01162 -0.30686,-1.12513 -0.6819,-2.31847 -1.09104,-3.71637 -0.23867,-1.29561 -0.44324,-2.59123 -0.7501,-3.71637 -0.30685,-1.15924 -0.44324,-1.80705 -0.34095,-1.97752 0,-0.98876 0.27276,-2.55714 0.81828,-4.73923 0.716,-2.1139 1.432,-4.29599 2.21619,-6.58037 0.85238,-2.45485 1.70476,-4.73923 2.42076,-6.85313 0.6819,-2.1139 1.15923,-3.57999 1.53428,-4.43237 0.23866,-1.50018 -0.23867,-2.62533 -1.53428,-3.40951 -1.26153,-0.7501 -2.59124,-1.19334 -3.92095,-1.36382 -1.19333,-3.34132 -1.67066,-7.09179 -1.50018,-11.2514 0.44323,-4.2278 0.81828,-8.42151 1.22742,-12.68341 0.40914,-4.22779 0.44324,-8.31922 0.0682,-12.10378 -0.37505,-3.78456 -1.87523,-7.09179 -4.50057,-9.8535 l -2.7958,6.64856 -13.05845,-5.62571 6.30761,-14.38816 c -2.01162,-0.88648 -3.85276,-2.07981 -5.42114,-3.58 -1.50019,-1.63656 -3.00037,-3.30723 -4.50056,-4.97789 -1.43199,-1.80704 -2.93218,-3.47771 -4.50056,-4.9438 -1.50019,-1.67067 -3.20495,-2.89809 -5.08018,-3.71637 -0.68191,-0.27277 -1.32972,-0.57962 -1.90933,-0.716 z m 390.32152,112.17311 c 1.19333,0.51143 1.4661,1.53428 0.85238,2.86399 -0.64781,1.53428 -1.50019,2.01162 -2.69352,1.50019 -1.19333,-0.51142 -1.50019,-1.56837 -0.81828,-3.10266 0.57961,-1.36381 1.46609,-1.77295 2.65942,-1.26152 z m 172.69204,61.78045 c 0.27277,0 0.51143,0.0682 0.81829,0.20457 1.19333,0.51143 1.36381,1.53429 0.716,3.06857 -0.57962,1.3638 -1.46609,1.77294 -2.65943,1.26152 -1.19333,-0.51143 -1.50019,-1.432 -0.88647,-2.7958 0.47733,-1.12515 1.22743,-1.77296 2.01161,-1.73886 z m -33.41327,0.68191 c 0.13639,0.0341 0.23867,0.13637 0.37505,0.30685 0.68191,0.716 0.92057,1.19333 0.78419,1.53428 -0.30686,0.68191 -0.92057,0.92058 -1.84114,0.716 -0.6819,-0.27276 -0.81828,-0.81828 -0.44323,-1.67066 0.34094,-0.7501 0.75008,-1.05695 1.12513,-0.88647 z m 0.85238,3.40951 c 0.23867,0.0341 0.51143,0.10228 0.81829,0.23867 1.19333,0.51142 1.50019,1.43199 0.88647,2.76171 -0.64781,1.53428 -1.60247,1.97752 -2.7958,1.46609 -1.19334,-0.51143 -1.3979,-1.432 -0.75009,-2.96628 0.44324,-1.02286 1.05694,-1.53428 1.84113,-1.50019 z M 601.66104,427.38632 c 0.61371,0.10228 1.19333,0.23866 1.73885,0.47733 -1.02285,2.38666 -2.52304,4.2278 -4.46646,5.42113 -1.90933,1.19333 -3.92095,2.25028 -6.17123,3.30723 -2.25029,1.02286 -4.36418,2.21618 -6.3758,3.58 -1.90933,1.15923 -3.40952,2.89808 -4.36418,5.11427 -1.09104,2.52304 -1.29561,4.60285 -0.54553,6.13713 0.92057,1.60248 2.01162,3.10266 3.17086,4.60285 1.15923,1.50019 1.97751,3.23904 2.59123,5.11428 0.85238,1.77294 0.6819,3.98913 -0.47733,6.71674 -0.23867,0.51143 -0.88647,1.56838 -1.97752,3.10267 -0.88648,1.63656 -1.432,2.59123 -1.73886,2.82989 0.95467,-1.77294 1.15924,-3.17085 0.54553,-4.02323 -0.57963,-1.05695 -1.53429,-1.84114 -2.89809,-2.45485 -0.34095,-0.13638 -0.88648,-0.23867 -1.46609,-0.27276 -0.34096,-0.13638 -0.51144,-0.23867 -0.68191,-0.30686 -0.47733,0.61372 -1.32971,1.56838 -2.59124,3.06857 -1.05695,1.53428 -2.31846,3.20494 -3.61408,4.87561 -1.09105,1.53428 -2.18209,3.00037 -3.44362,4.46647 -0.98875,1.39789 -1.67065,2.45484 -2.14799,3.06856 -1.02285,0.95467 -2.65942,1.3979 -4.90971,1.432 -2.21618,0.0341 -4.63693,-0.10229 -7.22817,-0.64781 -2.42076,-0.44324 -4.9438,-1.09104 -7.46684,-1.77295 -2.45486,-0.85238 -4.36419,-1.60247 -5.89847,-2.25028 -2.04571,-0.88648 -3.61409,-2.28438 -4.60284,-4.12552 -0.95467,-2.01162 -1.60248,-4.15961 -1.80705,-6.44398 -0.13638,-2.48895 0.10229,-4.9438 0.54553,-7.36456 0.51142,-2.59124 1.22742,-4.90971 2.1139,-6.92132 l 2.28437,0.92057 c -0.0341,1.432 -0.13638,3.06857 -0.37505,4.97789 -0.0341,2.01162 0,4.05733 0.13638,6.10304 0.17048,1.90933 0.64781,3.71637 1.50019,5.48932 0.81829,1.77295 2.148,3.13675 3.98914,3.95504 2.0457,0.88647 4.33008,0.6819 6.64856,-0.51142 2.59123,-1.29562 4.9438,-2.93219 7.15998,-4.80743 2.28438,-2.0457 4.2619,-4.02323 5.96665,-6.10303 1.70476,-2.07981 2.96629,-3.51181 3.64819,-4.19371 l 0.57962,-1.29561 0.37505,-0.98876 0.75009,-7.19408 0.54552,-1.29562 c 0.81829,-1.87524 2.48895,-4.33009 5.14837,-7.22818 2.8299,-2.7958 5.93257,-5.35294 9.17161,-7.77369 3.27313,-2.42077 6.64855,-4.3301 10.02398,-5.6939 2.55714,-0.98876 4.70513,-1.3638 6.61446,-1.09104 z m 175.99927,49.54028 c 0.17047,0.0341 0.40914,0.0682 0.61371,0.17047 1.02286,0.44324 1.12515,1.05695 0.40914,1.77296 -0.6478,0.51142 -1.12513,0.61371 -1.46609,0.47733 -0.6819,-0.27276 -0.92057,-0.7842 -0.78418,-1.53428 0.27276,-0.64781 0.6819,-0.92058 1.22742,-0.88648 z M 650.79218,451.83255 c 0.27276,0 0.51143,0.0682 0.81828,0.20457 1.19334,0.51143 1.4661,1.56838 0.81829,3.10267 -0.57962,1.3638 -1.4661,1.77294 -2.65943,1.26152 -1.19333,-0.51143 -1.50019,-1.432 -0.92057,-2.79581 0.51144,-1.12514 1.15924,-1.77295 1.94343,-1.77295 z m -156.32636,-26.7988 c -1.36381,-0.34096 -2.62533,-0.47733 -3.75047,-0.44324 -2.07981,0.10228 -3.98914,0.6819 -5.6598,1.77295 -1.50019,1.15924 -2.86399,2.7958 -4.2278,5.04609 -1.12514,2.1139 -2.35256,4.63693 -3.57999,7.53503 -0.88647,2.01161 -1.36381,3.98914 -1.36381,5.79618 0.10229,1.67066 1.26152,2.96628 3.47771,3.92094 -1.32971,3.06857 -2.52304,4.87561 -3.57999,5.45523 -0.88648,0.61371 -1.73886,1.02286 -2.65943,1.26152 -0.64781,0.10228 -1.43199,0.23867 -2.31847,0.47733 -0.7501,0.27276 -1.50018,1.53428 -2.45485,3.75047 -0.37505,0.85238 -0.95466,2.18209 -1.77295,4.02323 -0.54553,1.77295 -0.30686,3.20494 0.88647,4.12552 -0.75009,-0.13638 -2.35256,-0.10229 -4.9097,0.20457 -2.55714,0.30685 -4.15961,1.43199 -4.97789,3.30723 0.34094,0.13638 1.09104,0.51143 2.45484,1.09104 1.432,0.40915 2.31848,0.68191 2.65943,0.81829 0.6819,0.30685 1.97752,0.78419 3.92094,1.3979 1.94343,0.64781 3.98914,1.26152 6.10304,1.97752 2.35257,0.61372 4.46647,1.22743 6.23942,1.80704 2.01161,0.47734 3.30722,0.88648 3.98913,1.19334 1.97752,0.0341 3.44362,-1.02286 4.39828,-3.23904 0.37505,-0.85238 0.64781,-1.84114 0.85238,-2.76171 0.20457,-0.92057 0.47733,-1.50019 0.81828,-1.73885 0.0682,-0.17048 0.40915,-0.51144 1.05695,-1.05695 0.78419,-0.44324 1.63657,-0.85238 2.45485,-1.32972 1.02286,-0.54552 1.77295,-0.98876 2.31847,-1.32971 0.81829,-0.47733 1.29562,-0.78419 1.36381,-0.95466 0,0 -0.23867,-1.77295 -0.57961,-5.14837 -0.37505,-3.37543 -0.7501,-6.98952 -1.22743,-11.01275 -0.40914,-4.2278 -0.7501,-8.21693 -1.22743,-11.83102 -0.20457,-3.71637 -0.30685,-5.89847 -0.17047,-6.68265 0.13638,-0.30686 0.75009,-0.85238 1.87523,-1.56839 1.19333,-0.88647 2.01162,-1.43199 2.31847,-1.70475 0.0682,-0.17047 0.30686,-0.61371 0.78419,-1.22742 0.44324,-0.57962 0.78419,-1.05695 0.92057,-1.39791 -1.60247,-0.6819 -3.06856,-1.19333 -4.43237,-1.53428 z M 275.47253,369.52681 c 0.27277,0 0.51143,0.10229 0.81829,0.23866 1.19333,0.51143 1.50018,1.39791 0.92057,2.76171 -0.68191,1.53429 -1.56838,2.1139 -2.76171,1.56838 -1.19333,-0.51143 -1.46609,-1.53428 -0.81828,-3.06857 0.44323,-1.02284 1.05695,-1.53428 1.84113,-1.50018 z m 324.38146,95.90972 c 0.61372,0.13637 1.12514,0.40914 1.80705,0.71599 0.34095,0.13639 0.78418,0.37505 1.22742,0.7501 0.51143,0.23867 0.81829,0.40914 0.98876,0.51142 -1.63657,0.47733 -3.00037,0.716 -4.15961,0.61372 -0.92057,-0.17048 -2.04571,-0.64781 -3.40951,-1.22743 l -2.07981,-0.88647 c 1.63657,-0.51143 2.93218,-0.75009 3.95504,-0.716 0.47733,0 1.09104,0.0682 1.67066,0.23867 z M 468.82625,441.50172 c -0.85238,-0.23867 -1.60247,-0.40915 -2.21619,-0.47733 -1.15923,-0.10229 -2.25027,-0.0341 -3.30722,0.10228 -0.92058,0.20457 -1.97753,0.51143 -3.10267,0.81828 -1.05695,0.13639 -2.55714,0.13639 -4.53466,0.10229 -0.17047,0.34095 -0.57962,1.12514 -1.3297,2.38666 -0.57963,1.36381 -0.98877,2.38666 -1.22743,2.89809 -0.0682,0.17048 -0.37505,0.61371 -0.92057,1.3979 -0.30686,0.68191 -0.54553,1.53429 -0.81829,2.62533 -0.20457,0.92057 -0.44323,1.80704 -0.61371,2.72762 0.0341,0.81828 0.51142,1.43199 1.3638,1.80704 4.9438,2.1139 8.42152,2.59123 10.56951,1.29561 2.42076,-1.3638 4.2619,-3.61409 5.55751,-6.64856 l 3.47771,-7.91008 c -1.12514,-0.47733 -2.07981,-0.85238 -2.89809,-1.12513 z m 48.82429,91.34096 3.23904,1.432 7.46684,18.58187 c 0,0 -0.30686,0.0341 -0.88647,-0.0341 -0.51144,-0.20458 -0.92058,-0.40915 -1.26152,-0.57963 -1.53429,-0.6478 -3.06858,-1.63657 -4.46647,-3.06856 -1.32971,-1.56838 -2.45486,-3.27314 -3.47771,-5.11427 -0.78419,-1.94343 -1.22743,-3.92096 -1.432,-5.79619 -0.10229,-2.0798 0.17048,-3.88685 0.81829,-5.42113 z m -15.37693,1.3638 c 0.23867,0 0.51143,0.10229 0.81829,0.23867 1.19333,0.51143 1.50019,1.3979 0.92057,2.76171 -0.6819,1.53429 -1.67067,2.07981 -2.86399,1.56838 -1.19334,-0.51143 -1.36382,-1.53428 -0.71601,-3.06857 0.44324,-1.02285 1.05695,-1.53428 1.84114,-1.50019 z m 26.79881,21.68454 2.55713,1.15923 -1.84113,4.36419 c -1.15924,-1.94343 -1.432,-3.81866 -0.716,-5.52342 z m -5.59161,4.02323 c 0.17048,0.0341 0.30685,0.0341 0.51142,0.13637 0.85238,0.37505 1.05695,0.88648 0.57962,1.4661 -0.27275,0.6819 -0.81828,0.88647 -1.46609,0.61371 -0.51142,-0.23866 -0.71599,-0.7501 -0.61371,-1.50019 0.10229,-0.54552 0.47734,-0.78419 0.98876,-0.71599 z M 140.31928,480.47249 c -0.64781,1.53429 -1.02286,3.20495 -1.02286,5.012 0.0341,1.84113 1.05695,3.17084 3.10266,4.05732 l 2.96628,-6.92132 -5.04608,-2.148 z m 399.86816,111.11617 c -0.61371,-0.0682 -1.22743,-0.10229 -1.77294,0.0682 -1.15925,0.30685 -2.07981,1.29562 -2.79581,3.00037 l 9.47846,4.09142 c 1.32971,-3.06856 0.27276,-5.25066 -2.96628,-6.64855 -0.68191,-0.27276 -1.32971,-0.44324 -1.94343,-0.51143 z M 148.05888,491.042 c -0.17048,-0.0682 -0.34095,0 -0.57962,0.0682 -0.17047,-0.0682 -0.30686,-0.13638 -0.47733,-0.23866 l -2.96628,6.92131 c 1.19333,0.51143 2.28438,0.75009 3.37542,0.57962 1.29562,-0.23866 2.18209,-1.05695 2.69352,-2.25028 0.0682,-0.17048 0.0341,-0.30686 -0.0682,-0.54552 0.13638,-0.34096 0.23866,-0.51143 0.23866,-0.51143 0.17048,-1.32971 -0.27276,-2.45485 -1.29561,-3.30723 0,0 -0.13638,-0.10229 -0.47734,-0.23867 -0.10228,-0.23867 -0.27276,-0.37505 -0.44323,-0.47734 z m 2.35257,9.27389 -0.85238,1.97751 4.36418,1.84115 0.85238,-1.97752 -4.36418,-1.84114 z M 135.205,496.53132 c -0.47733,3.13676 -0.88647,6.20532 -1.29562,9.34208 1.02286,0.47733 2.07981,0.92057 3.27314,1.32971 -1.32971,-0.17048 -2.25028,0.13638 -2.7958,0.92057 -0.44324,0.64781 -0.7501,1.32972 -1.09105,2.01162 -0.13638,1.09104 -0.30686,2.21618 -0.44324,3.30722 0.7501,0.68191 1.70476,1.4661 3.27314,2.65943 1.87523,1.19333 3.13675,2.04571 3.92094,2.59123 l 1.05695,0.51143 1.02286,0.37505 c 0.85238,0.37505 2.72761,0.88647 5.6598,1.53428 3.17085,0.57962 5.25065,1.02286 6.17122,1.22743 0.0682,-0.17048 0.17048,-0.30686 0.23867,-0.47733 0.30686,-0.27277 0.47733,-0.57962 0.54552,-0.7501 0.716,-1.70476 -0.20457,-3.98913 -2.76171,-6.92132 -2.42075,-2.864 -5.25065,-5.89847 -8.69426,-9.20569 -2.72762,-2.8299 -5.42114,-5.65981 -8.08056,-8.45561 z m 24.07119,25.36681 -1.84114,4.36418 8.59198,3.64818 1.94343,-4.2278 -8.69427,-3.78456 z m 469.01318,143.57476 c 0.92056,0.20458 1.77294,0.47733 2.62532,0.81829 2.38667,1.02286 3.85275,2.96628 4.36419,5.59161 0.71599,2.52304 1.19332,5.18246 1.53428,8.14874 0.34095,2.96628 0.81829,6.00075 1.56837,8.93294 0.81829,2.76171 2.79581,4.9097 5.76209,6.40989 -0.98876,-0.0341 -3.06856,-0.34096 -6.27351,-0.92057 -2.93219,-0.6819 -4.80742,-1.15924 -5.6257,-1.53428 l -1.09105,-0.51143 -0.98876,-0.37505 c 0.34095,-4.09142 0.30685,-8.4215 -0.17048,-12.85388 -0.44323,-4.60284 -1.94342,-8.76246 -4.36417,-12.44473 0.85238,-1.02286 1.73885,-1.4661 2.65942,-1.26153 z m -64.95131,-15.34283 c 1.19334,0.51144 1.46609,1.56839 0.81829,3.10267 -0.57962,1.3638 -1.4661,1.77295 -2.65942,1.26152 -1.02286,-0.44323 -1.29562,-1.36381 -0.71601,-2.72761 0.68191,-1.53429 1.53429,-2.07981 2.55714,-1.63658 z m 0.44324,5.31885 c 1.19333,0.51144 1.46609,1.56839 0.81828,3.10267 -0.57961,1.32971 -1.46609,1.77294 -2.65942,1.26152 -1.19333,-0.51143 -1.50018,-1.432 -0.92057,-2.7958 0.68191,-1.53429 1.56838,-2.07981 2.76171,-1.56839 z M 140.25109,542.04837 c -0.30686,0.68191 -1.15924,1.39791 -2.69352,2.148 -1.432,0.57962 -2.65943,0.716 -3.51181,0.37505 -0.17047,-0.10229 -0.51142,-0.44324 -1.02285,-1.05695 -0.47733,-0.81829 -1.02286,-1.67067 -1.63657,-2.55714 -0.17048,-0.30686 -0.34095,-0.57962 -0.54552,-0.92057 -2.89809,72.0431 15.20644,141.87001 49.91533,202.21846 0.88648,-1.02286 1.87523,-1.97752 2.79581,-3.00038 1.22742,-1.46609 2.25027,-2.7958 3.17084,-3.98913 0.98876,-1.3979 1.67066,-2.31847 2.07981,-2.7617 l 1.12514,-2.55714 1.73885,-4.05733 1.77295,-4.05732 0.95466,-2.28438 c 2.59124,-3.68228 5.76209,-6.64856 9.37618,-8.93294 3.64818,-2.45485 7.22818,-4.84151 10.84227,-7.12589 3.85275,-2.35256 7.36455,-4.84152 10.5354,-7.50093 3.23904,-2.8299 5.86437,-6.54628 7.84189,-11.14912 1.63657,-3.71638 2.25028,-6.58037 1.87524,-8.5238 -0.10229,-2.07981 -0.78419,-3.88685 -1.94343,-5.38703 -1.15924,-1.50019 -2.65942,-3.13676 -4.56875,-4.77333 -1.73886,-1.56838 -3.61409,-3.61409 -5.48933,-6.23942 -0.20457,-0.47733 -0.75009,-1.19332 -1.73885,-2.21618 -0.716,-1.12514 -1.22742,-1.80705 -1.56838,-1.97752 -0.23866,-0.30686 -1.15923,-0.85238 -2.62532,-1.70476 -1.432,-0.81828 -2.96628,-1.67066 -4.60285,-2.55714 -1.53429,-1.09104 -3.06857,-2.04571 -4.50057,-2.864 -1.46609,-0.85238 -2.35256,-1.3638 -2.69351,-1.50018 -3.37542,-2.48895 -6.23942,-5.38704 -8.76246,-8.89884 -2.48895,-3.47771 -5.59161,-6.54627 -9.13751,-9.06932 1.94343,-5.42113 3.00038,-9.81941 3.23904,-13.16073 0.40915,-3.23904 0.20457,-5.83028 -0.54552,-7.77371 -0.78419,-1.94342 -1.87523,-3.37541 -3.44362,-4.43236 -1.3638,-1.02286 -3.03446,-2.25029 -4.8756,-3.64819 -1.63657,-1.29562 -3.30723,-2.93218 -5.08018,-4.9097 -1.73885,-1.97753 -3.17085,-4.73924 -4.2278,-8.42151 -1.53428,-5.28475 -3.78457,-9.68303 -6.68266,-13.16073 -2.93218,-3.47772 -6.06894,-6.64856 -9.47845,-9.51256 -3.13676,-2.96628 -6.23942,-6.13713 -9.2398,-9.47846 -3.00037,-3.30723 -5.21656,-7.53503 -6.64855,-12.58112 z m 184.93221,59.3256 -6.17123,2.52304 6.92131,2.96628 c 0.95467,-2.21618 0.68191,-4.09141 -0.75008,-5.48932 z m 380.80896,200.44552 c -0.30685,0.23866 -0.85238,0.75009 -1.63656,1.63656 -0.61372,0.95467 -1.29562,2.01162 -2.148,3.06857 -0.61371,0.95466 -1.26152,1.90933 -1.94342,3.00038 -0.57962,0.95466 -1.02286,1.67066 -1.19334,2.01161 l -0.54552,1.15924 -0.40914,1.12514 c 0.0341,0.40914 0.17047,0.92056 0.44324,1.63656 0.37504,0.57962 0.6819,1.05695 0.95466,1.36381 0,0 0.0341,0.13638 0.13638,0.37505 0.34095,0.13638 0.61372,0.23867 0.78418,0.34095 0.17048,0.0682 0.30687,0.13638 0.47734,0.23866 0.40914,-0.0341 0.57962,-0.0682 0.57962,-0.0682 0.6478,-0.13637 1.80704,-0.54551 3.27314,-1.12513 1.53428,-0.7501 2.55714,-1.19334 3.03447,-1.36381 0,0 -0.0341,-0.0341 0.0682,-0.20457 0.30686,-0.27277 0.54552,-0.54552 0.61372,-0.716 0.81828,-1.87524 0.75009,-3.95504 -0.0682,-6.3076 -0.78419,-2.35257 -1.56838,-4.39829 -2.42076,-6.17123 z M 544.7562,842.35864 c -2.31847,0.20457 -4.39828,0.88647 -6.06895,1.97752 -1.67066,1.09105 -3.40951,2.35257 -5.21655,3.78457 -1.60248,1.32971 -3.37543,2.62532 -5.38704,3.95504 -1.97753,1.3638 -4.39828,2.45485 -7.15999,3.27313 -0.47733,0.17048 -1.53428,0.64781 -3.23904,1.32971 -1.46609,0.57962 -2.48895,0.98877 -2.96628,1.15925 -1.60247,0.92056 -3.23904,2.48894 -5.01199,4.73922 -1.60247,2.31848 -3.23904,4.87561 -4.84151,7.63732 -1.32971,2.62533 -2.65943,5.31884 -4.02324,7.94418 -1.15923,2.7276 -2.14799,4.9438 -2.93218,6.81903 l -1.53428,3.57999 c -1.02286,2.35256 -1.80704,4.9097 -2.148,7.56913 -0.17048,2.76171 0.92057,4.63694 3.13676,5.59161 3.20495,1.3979 5.89846,1.90933 8.04646,1.63656 2.31847,-0.20457 4.26189,-0.98875 6.00075,-2.25028 1.84114,-1.432 3.57999,-3.20494 5.11427,-5.35294 1.70476,-2.07981 3.47771,-4.29599 5.35295,-6.71675 0.51143,-0.78418 1.60247,-2.48894 3.37542,-5.14837 1.97752,-2.76171 4.09141,-5.72798 6.23941,-8.79655 2.31847,-3.03447 4.39828,-6.10304 6.30761,-9.13751 2.07981,-2.93218 3.61409,-5.08018 4.63695,-6.47808 0.0682,-0.17048 0.13637,-0.47733 0.37504,-0.98876 0.44324,-0.61371 0.78419,-1.05695 0.92057,-1.3979 0.88648,-2.04571 1.05696,-4.2619 0.47733,-6.71675 -0.54552,-2.45486 -0.30685,-5.14837 0.54553,-8.01237 z" />
    <path
       style="opacity:0.91941002;fill:url(#linearGradient4096)"
       inkscape:connector-curvature="0"
       id="path5492"
       d="M 704.11703,280.67479 C 763.71538,395.7119 595.21705,238.9764 402.71571,395.20047 269.23312,503.55493 210.58942,682.17953 150.99106,567.14242 91.4268,452.10531 166.9476,294.58562 319.62578,215.48482 c 152.64408,-79.0667 324.92698,-49.84713 384.49125,65.18997 z" />
    <g
       id="g3191">
      <g
         style="stroke-width:25.857;stroke-miterlimit:4;stroke-dasharray:none"
         id="g4000">
        <path
           id="path3797-2"
           d="m 465.86361,459.41287 0,87.6501 -75.88962,43.81495"
           style="color:#000000;fill:none;stroke:url(#radialGradient4130);stroke-width:25.857;stroke-linecap:round;stroke-linejoin:round;stroke-miterlimit:4;stroke-opacity:1;stroke-dasharray:none;marker:none;visibility:visible;display:inline;overflow:visible;enable-background:accumulate"
           inkscape:connector-curvature="0" />
        <path
           id="path3789-5"
           d="m 423.1615,647.12528 76.14469,-43.96216 76.16232,43.97234"
           style="color:#000000;fill:none;stroke:url(#radialGradient4132);stroke-width:25.857;stroke-linecap:round;stroke-linejoin:round;stroke-miterlimit:4;stroke-opacity:1;stroke-dasharray:none;marker:none;visibility:visible;display:inline;overflow:visible;enable-background:accumulate"
           inkscape:connector-curvature="0" />
        <path
           id="path3781-7"
           d="m 610.026,589.35873 -76.16234,-43.97237 0,-87.79754"
           style="color:#000000;fill:none;stroke:url(#radialGradient4134);stroke-width:25.857;stroke-linecap:round;stroke-linejoin:round;stroke-miterlimit:4;stroke-opacity:1;stroke-dasharray:none;marker:none;visibility:visible;display:inline;overflow:visible;enable-background:accumulate"
           inkscape:connector-curvature="0" />
      </g>
      <path
         inkscape:tile-y0="88.758607"
         inkscape:tile-x0="647.30938"
         inkscape:tile-h="78.89037"
         inkscape:tile-w="137.55935"
         inkscape:tile-cy="128.20379"
         inkscape:tile-cx="716.08906"
         inkscape:connector-curvature="0"
         style="color:#000000;fill:none;stroke:url(#radialGradient6333-4);stroke-width:25.85700035;stroke-linecap:round;stroke-linejoin:round;stroke-miterlimit:4;stroke-opacity:1;stroke-dasharray:none;marker:none;visibility:visible;display:inline;overflow:visible;enable-background:accumulate"
         d="m 784.61805,884.35284 -45.85373,79.42119 -91.24697,0.2635"
         id="path3793-45" />
      <path
         inkscape:tile-y0="88.758607"
         inkscape:tile-x0="647.30938"
         inkscape:tile-h="78.89037"
         inkscape:tile-w="137.55935"
         inkscape:tile-cy="128.20379"
         inkscape:tile-cx="716.08906"
         inkscape:connector-curvature="0"
         style="color:#000000;fill:none;stroke:url(#radialGradient6333);stroke-width:25.85700035;stroke-linecap:round;stroke-linejoin:round;stroke-miterlimit:4;stroke-opacity:1;stroke-dasharray:none;marker:none;visibility:visible;display:inline;overflow:visible;enable-background:accumulate"
         d="m 932.22491,473.06553 45.85384,79.42111 -45.39534,79.15392"
         id="path3793-4" />
      <path
         inkscape:tile-y0="88.758607"
         inkscape:tile-x0="647.30938"
         inkscape:tile-h="78.89037"
         inkscape:tile-w="137.55935"
         inkscape:tile-cy="128.20379"
         inkscape:tile-cx="716.08906"
         inkscape:connector-curvature="0"
         style="color:#000000;fill:none;stroke:url(#radialGradient5672);stroke-width:25.85700034999999986;stroke-linecap:round;stroke-linejoin:round;stroke-miterlimit:4;stroke-opacity:1;stroke-dasharray:none;marker:none;visibility:visible;display:inline;overflow:visible;enable-background:accumulate"
         d="m 647.30938,141.12079 91.70762,0 45.85173,78.89037"
         id="path3793" />
      <path
         inkscape:tile-y0="88.758607"
         inkscape:tile-x0="647.30938"
         inkscape:tile-h="78.89037"
         inkscape:tile-w="137.55935"
         inkscape:tile-cy="128.20379"
         inkscape:tile-cx="716.08906"
         inkscape:connector-curvature="0"
         style="color:#000000;fill:none;stroke:url(#radialGradient6333-9);stroke-width:25.85700035;stroke-linecap:round;stroke-linejoin:round;stroke-miterlimit:4;stroke-opacity:1;stroke-dasharray:none;marker:none;visibility:visible;display:inline;overflow:visible;enable-background:accumulate"
         d="m 352.76008,963.61271 -91.70762,0 -45.85168,-78.89035"
         id="path3793-0" />
      <path
         inkscape:tile-y0="88.758607"
         inkscape:tile-x0="647.30938"
         inkscape:tile-h="78.89037"
         inkscape:tile-w="137.55935"
         inkscape:tile-cy="128.20379"
         inkscape:tile-cx="716.08906"
         inkscape:connector-curvature="0"
         style="color:#000000;fill:none;stroke:url(#radialGradient6333-7);stroke-width:25.85700035;stroke-linecap:round;stroke-linejoin:round;stroke-miterlimit:4;stroke-opacity:1;stroke-dasharray:none;marker:none;visibility:visible;display:inline;overflow:visible;enable-background:accumulate"
         d="m 215.39698,220.45608 45.85381,-79.42112 91.24694,-0.26358"
         id="path3793-8" />
      <path
         inkscape:tile-y0="88.758607"
         inkscape:tile-x0="647.30938"
         inkscape:tile-h="78.89037"
         inkscape:tile-w="137.55935"
         inkscape:tile-cy="128.20379"
         inkscape:tile-cx="716.08906"
         inkscape:connector-curvature="0"
         style="color:#000000;fill:none;stroke:url(#radialGradient6333-6);stroke-width:25.85700035;stroke-linecap:round;stroke-linejoin:round;stroke-miterlimit:4;stroke-opacity:1;stroke-dasharray:none;marker:none;visibility:visible;display:inline;overflow:visible;enable-background:accumulate"
         d="m 67.775107,631.64057 -45.85381,-79.42113 45.3952,-79.15395"
         id="path3793-5" />
    </g>
  </g>
</svg>
