<?xml version="1.0" encoding="UTF-8" standalone="no"?>
<!-- Created with Inkscape (http://www.inkscape.org/) -->

<svg
   xmlns:dc="http://purl.org/dc/elements/1.1/"
   xmlns:cc="http://creativecommons.org/ns#"
   xmlns:rdf="http://www.w3.org/1999/02/22-rdf-syntax-ns#"
   xmlns:svg="http://www.w3.org/2000/svg"
   xmlns="http://www.w3.org/2000/svg"
   xmlns:xlink="http://www.w3.org/1999/xlink"
   xmlns:sodipodi="http://sodipodi.sourceforge.net/DTD/sodipodi-0.dtd"
   xmlns:inkscape="http://www.inkscape.org/namespaces/inkscape"
   width="1000"
   height="1000"
   id="svg2"
   version="1.1"
   inkscape:version="0.48.4 r9939"
   sodipodi:docname="geofinder.svg"
   inkscape:export-filename="/home/przemo/Pictures/geofinder-256.png"
   inkscape:export-xdpi="23.040001"
   inkscape:export-ydpi="23.040001">
  <sodipodi:namedview
     id="base"
     pagecolor="#ffffff"
     bordercolor="#666666"
     borderopacity="1.0"
     inkscape:pageopacity="0.0"
     inkscape:pageshadow="2"
     inkscape:zoom="0.721"
     inkscape:cx="500"
     inkscape:cy="500"
     inkscape:document-units="px"
     inkscape:current-layer="layer1"
     showgrid="false"
     inkscape:window-width="1680"
     inkscape:window-height="984"
     inkscape:window-x="0"
     inkscape:window-y="27"
     inkscape:window-maximized="1" />
  <defs
     id="defs4">
    <linearGradient
       id="linearGradient5159">
      <stop
         style="stop-color:#0016ff;stop-opacity:1;"
         offset="0"
         id="stop5161" />
      <stop
         style="stop-color:#00b3ff;stop-opacity:1;"
         offset="1"
         id="stop5163" />
    </linearGradient>
    <linearGradient
       id="linearGradient3840">
      <stop
         id="stop3842"
         offset="0"
         style="stop-color:#ff050b;stop-opacity:1;" />
      <stop
         id="stop3844"
         offset="1"
         style="stop-color:#feff00;stop-opacity:1;" />
    </linearGradient>
    <radialGradient
       gradientUnits="userSpaceOnUse"
       gradientTransform="matrix(0.52040545,0,0,0.52363495,75.251024,203.58971)"
       r="68.249306"
       fy="438.31454"
       fx="155.36674"
       cy="438.31454"
       cx="155.36674"
       id="radialGradient3848"
       xlink:href="#linearGradient3840"
       inkscape:collect="always" />
    <radialGradient
       id="radialGradient1773"
       gradientUnits="userSpaceOnUse"
       cy="1548.1"
       cx="-32.945"
       gradientTransform="matrix(-1.8804,2.3609,-2.5012,-2.3991,3780.3,5333)"
       r="22.421">
      <stop
         id="stop6536"
         stop-color="#16009e"
         offset="0" />
      <stop
         id="stop6544"
         stop-color="#7ccbff"
         offset=".5" />
      <stop
         id="stop6546"
         stop-color="#fff"
         offset="1" />
    </radialGradient>
    <linearGradient
       id="linearGradient1775"
       y2="1586.4"
       xlink:href="#linearGradient20137"
       gradientUnits="userSpaceOnUse"
       x2="12.767"
       gradientTransform="matrix(8.6505,0,0,8.806,566.58,-13540)"
       y1="1590"
       x1="12.77" />
    <linearGradient
       id="linearGradient20137">
      <stop
         id="stop20139"
         stop-color="#000593"
         offset="0" />
      <stop
         id="stop20141"
         stop-color="#00023a"
         offset="1" />
    </linearGradient>
    <linearGradient
       id="linearGradient1777"
       y2="1586.4"
       xlink:href="#linearGradient20137"
       gradientUnits="userSpaceOnUse"
       x2="12.767"
       gradientTransform="matrix(8.6505,0,0,8.806,566.58,-13540)"
       y1="1583.6"
       x1="14.402" />
    <linearGradient
       id="linearGradient4622">
      <stop
         id="stop4624"
         stop-color="#000593"
         offset="0" />
      <stop
         id="stop4626"
         stop-color="#00023a"
         offset="1" />
    </linearGradient>
    <linearGradient
       id="linearGradient1779"
       y2="1586.7"
       xlink:href="#linearGradient20137"
       gradientUnits="userSpaceOnUse"
       x2="18.447001"
       gradientTransform="matrix(8.6505,0,0,8.806,566.58,-13540)"
       y1="1591.1"
       x1="18.447001" />
    <linearGradient
       id="linearGradient4629">
      <stop
         id="stop4631"
         stop-color="#000593"
         offset="0" />
      <stop
         id="stop4633"
         stop-color="#00023a"
         offset="1" />
    </linearGradient>
    <linearGradient
       id="linearGradient1781"
       y2="1590.5"
       xlink:href="#linearGradient20137"
       gradientUnits="userSpaceOnUse"
       x2="19.424"
       gradientTransform="matrix(8.6505,0,0,8.806,566.58,-13540)"
       y1="1586.4"
       x1="19.006001" />
    <linearGradient
       id="linearGradient4636">
      <stop
         id="stop4638"
         stop-color="#000593"
         offset="0" />
      <stop
         id="stop4640"
         stop-color="#00023a"
         offset="1" />
    </linearGradient>
    <linearGradient
       id="linearGradient1783"
       y2="1590.7"
       xlink:href="#linearGradient20137"
       gradientUnits="userSpaceOnUse"
       x2="23.128"
       gradientTransform="matrix(8.6505,0,0,8.806,566.58,-13540)"
       y1="1593.1"
       x1="23.128" />
    <linearGradient
       id="linearGradient4643">
      <stop
         id="stop4645"
         stop-color="#000593"
         offset="0" />
      <stop
         id="stop4647"
         stop-color="#00023a"
         offset="1" />
    </linearGradient>
    <linearGradient
       id="linearGradient1785"
       y2="1594.1"
       xlink:href="#linearGradient20137"
       gradientUnits="userSpaceOnUse"
       x2="23.128"
       gradientTransform="matrix(8.6505,0,0,8.806,566.58,-13540)"
       y1="1588.8"
       x1="23.128" />
    <linearGradient
       id="linearGradient4650">
      <stop
         id="stop4652"
         stop-color="#000593"
         offset="0" />
      <stop
         id="stop4654"
         stop-color="#00023a"
         offset="1" />
    </linearGradient>
    <linearGradient
       id="linearGradient1787"
       y2="1548.8"
       xlink:href="#linearGradient20137"
       gradientUnits="userSpaceOnUse"
       x2="47.921001"
       gradientTransform="matrix(8.6505,0,0,8.806,566.58,-13540)"
       y1="1546.1"
       x1="48.936001" />
    <linearGradient
       id="linearGradient4657">
      <stop
         id="stop4659"
         stop-color="#000593"
         offset="0" />
      <stop
         id="stop4661"
         stop-color="#00023a"
         offset="1" />
    </linearGradient>
    <linearGradient
       id="linearGradient1789"
       y2="1546.1"
       xlink:href="#linearGradient20137"
       gradientUnits="userSpaceOnUse"
       x2="48.936001"
       gradientTransform="matrix(8.6505,0,0,8.806,566.58,-13540)"
       y1="1551"
       x1="46.219002" />
    <linearGradient
       id="linearGradient4664">
      <stop
         id="stop4666"
         stop-color="#000593"
         offset="0" />
      <stop
         id="stop4668"
         stop-color="#00023a"
         offset="1" />
    </linearGradient>
    <linearGradient
       id="linearGradient1791"
       y2="1554.2"
       xlink:href="#linearGradient20137"
       gradientUnits="userSpaceOnUse"
       x2="53.797001"
       gradientTransform="matrix(8.6505,0,0,8.806,566.58,-13540)"
       y1="1550.5"
       x1="59.308998" />
    <linearGradient
       id="linearGradient4671">
      <stop
         id="stop4673"
         stop-color="#000593"
         offset="0" />
      <stop
         id="stop4675"
         stop-color="#00023a"
         offset="1" />
    </linearGradient>
    <linearGradient
       id="linearGradient1793"
       y2="1551"
       xlink:href="#linearGradient20137"
       gradientUnits="userSpaceOnUse"
       x2="60.063999"
       gradientTransform="matrix(8.6505,0,0,8.806,566.58,-13540)"
       y1="1555.4"
       x1="55.944" />
    <linearGradient
       id="linearGradient4678">
      <stop
         id="stop4680"
         stop-color="#000593"
         offset="0" />
      <stop
         id="stop4682"
         stop-color="#00023a"
         offset="1" />
    </linearGradient>
    <linearGradient
       id="linearGradient1795"
       y2="1566.8"
       xlink:href="#linearGradient20137"
       gradientUnits="userSpaceOnUse"
       x2="59.155998"
       gradientTransform="matrix(8.6505,0,0,8.806,566.58,-13540)"
       y1="1548.4"
       x1="72.003998" />
    <linearGradient
       id="linearGradient4685">
      <stop
         id="stop4687"
         stop-color="#000593"
         offset="0" />
      <stop
         id="stop4689"
         stop-color="#00023a"
         offset="1" />
    </linearGradient>
    <linearGradient
       id="linearGradient1797"
       y2="1557.6"
       xlink:href="#linearGradient20137"
       gradientUnits="userSpaceOnUse"
       x2="69.311996"
       gradientTransform="matrix(8.6505,0,0,8.806,566.58,-13540)"
       y1="1570.1"
       x1="59.484001" />
    <linearGradient
       id="linearGradient4692">
      <stop
         id="stop4694"
         stop-color="#000593"
         offset="0" />
      <stop
         id="stop4696"
         stop-color="#00023a"
         offset="1" />
    </linearGradient>
    <linearGradient
       id="linearGradient1799"
       y2="1593.9"
       xlink:href="#linearGradient20137"
       gradientUnits="userSpaceOnUse"
       x2="59.752998"
       gradientTransform="matrix(8.6505,0,0,8.806,566.58,-13540)"
       y1="1597.3"
       x1="89.156998" />
    <linearGradient
       id="linearGradient4699">
      <stop
         id="stop4701"
         stop-color="#000593"
         offset="0" />
      <stop
         id="stop4703"
         stop-color="#00023a"
         offset="1" />
    </linearGradient>
    <linearGradient
       id="linearGradient4705"
       y2="1593.9"
       xlink:href="#linearGradient20137"
       gradientUnits="userSpaceOnUse"
       x2="59.752998"
       gradientTransform="matrix(8.6505,0,0,8.806,566.58,-13540)"
       y1="1597.3"
       x1="89.156998" />
    <linearGradient
       id="linearGradient4707">
      <stop
         id="stop4709"
         stop-color="#000593"
         offset="0" />
      <stop
         id="stop4711"
         stop-color="#00023a"
         offset="1" />
    </linearGradient>
    <linearGradient
       id="linearGradient1803"
       y2="1581.5"
       xlink:href="#linearGradient20137"
       gradientUnits="userSpaceOnUse"
       x2="8.3376999"
       gradientTransform="matrix(8.6505,0,0,8.806,566.58,-13540)"
       y1="1589.8"
       x1="8.7990999" />
    <linearGradient
       id="linearGradient4714">
      <stop
         id="stop4716"
         stop-color="#000593"
         offset="0" />
      <stop
         id="stop4718"
         stop-color="#00023a"
         offset="1" />
    </linearGradient>
    <linearGradient
       id="linearGradient1805"
       y2="1586.4"
       xlink:href="#linearGradient20137"
       gradientUnits="userSpaceOnUse"
       x2="8.1456003"
       gradientTransform="matrix(8.6505,0,0,8.806,566.58,-13540)"
       y1="1582.1"
       x1="7.6469002" />
    <linearGradient
       id="linearGradient4721">
      <stop
         id="stop4723"
         stop-color="#000593"
         offset="0" />
      <stop
         id="stop4725"
         stop-color="#00023a"
         offset="1" />
    </linearGradient>
    <linearGradient
       id="linearGradient1807"
       y2="1583.7"
       xlink:href="#linearGradient20137"
       gradientUnits="userSpaceOnUse"
       x2="25.165001"
       gradientTransform="matrix(8.6505,0,0,8.806,566.58,-13540)"
       y1="1627.2"
       x1="23.75" />
    <linearGradient
       id="linearGradient4728">
      <stop
         id="stop4730"
         stop-color="#000593"
         offset="0" />
      <stop
         id="stop4732"
         stop-color="#00023a"
         offset="1" />
    </linearGradient>
    <linearGradient
       id="linearGradient1809"
       y2="1651.8"
       xlink:href="#linearGradient20137"
       gradientUnits="userSpaceOnUse"
       x2="27.4"
       gradientTransform="matrix(8.6505,0,0,8.806,566.58,-13540)"
       y1="1528.3"
       x1="26.212" />
    <linearGradient
       id="linearGradient4735">
      <stop
         id="stop4737"
         stop-color="#000593"
         offset="0" />
      <stop
         id="stop4739"
         stop-color="#00023a"
         offset="1" />
    </linearGradient>
    <linearGradient
       id="linearGradient1811"
       y2="1556.5"
       xlink:href="#linearGradient4646"
       gradientUnits="userSpaceOnUse"
       x2="-143.82001"
       y1="1539.4"
       x1="-159.14" />
    <linearGradient
       id="linearGradient4646">
      <stop
         id="stop4648"
         stop-color="#fff"
         stop-opacity=".64948"
         offset="0" />
      <stop
         id="stop4650"
         stop-color="#fff"
         stop-opacity="0"
         offset="1" />
    </linearGradient>
    <linearGradient
       id="linearGradient1813"
       y2="1559"
       xlink:href="#linearGradient4646"
       gradientUnits="userSpaceOnUse"
       x2="-4.9626999"
       y1="1561.6"
       x1="-0.89604002" />
    <linearGradient
       id="linearGradient4746">
      <stop
         id="stop4748"
         stop-color="#fff"
         stop-opacity=".64948"
         offset="0" />
      <stop
         id="stop4750"
         stop-color="#fff"
         stop-opacity="0"
         offset="1" />
    </linearGradient>
    <linearGradient
       id="linearGradient1815"
       y2="1595.2"
       xlink:href="#linearGradient6758"
       gradientUnits="userSpaceOnUse"
       x2="21.447001"
       gradientTransform="matrix(8.6505,0,0,8.806,566.58,-13540)"
       y1="1606.9"
       x1="21.447001" />
    <linearGradient
       id="linearGradient6758">
      <stop
         id="stop6760"
         stop-opacity=".082474"
         offset="0" />
      <stop
         id="stop6762"
         stop-opacity="0"
         offset="1" />
    </linearGradient>
    <linearGradient
       id="linearGradient1817"
       y2="1533.4"
       xlink:href="#linearGradient6758"
       gradientUnits="userSpaceOnUse"
       x2="30.447001"
       gradientTransform="matrix(8.6505,0,0,8.806,566.58,-13540)"
       y1="1567.7"
       x1="30.447001" />
    <linearGradient
       id="linearGradient4757">
      <stop
         id="stop4759"
         stop-opacity=".082474"
         offset="0" />
      <stop
         id="stop4761"
         stop-opacity="0"
         offset="1" />
    </linearGradient>
    <linearGradient
       id="linearGradient1819"
       y2="1580.8"
       xlink:href="#linearGradient6758"
       gradientUnits="userSpaceOnUse"
       x2="44.248001"
       gradientTransform="matrix(8.6505,0,0,8.806,566.58,-13540)"
       y1="1587.9"
       x1="44.248001" />
    <linearGradient
       id="linearGradient4764">
      <stop
         id="stop4766"
         stop-opacity=".082474"
         offset="0" />
      <stop
         id="stop4768"
         stop-opacity="0"
         offset="1" />
    </linearGradient>
    <linearGradient
       id="linearGradient1821"
       y2="1585.4"
       xlink:href="#linearGradient6758"
       gradientUnits="userSpaceOnUse"
       x2="45.324001"
       gradientTransform="matrix(8.6505,0,0,8.806,566.58,-13540)"
       y1="1597.3"
       x1="45.324001" />
    <linearGradient
       id="linearGradient4771">
      <stop
         id="stop4773"
         stop-opacity=".082474"
         offset="0" />
      <stop
         id="stop4775"
         stop-opacity="0"
         offset="1" />
    </linearGradient>
    <linearGradient
       id="linearGradient1823"
       y2="1584.2"
       xlink:href="#linearGradient6758"
       gradientUnits="userSpaceOnUse"
       x2="24.447001"
       gradientTransform="matrix(8.6505,0,0,8.806,566.58,-13540)"
       y1="1592.5"
       x1="24.447001" />
    <linearGradient
       id="linearGradient4778">
      <stop
         id="stop4780"
         stop-opacity=".082474"
         offset="0" />
      <stop
         id="stop4782"
         stop-opacity="0"
         offset="1" />
    </linearGradient>
    <linearGradient
       id="linearGradient1825"
       y2="1584.2"
       xlink:href="#linearGradient6758"
       gradientUnits="userSpaceOnUse"
       x2="64.415001"
       gradientTransform="matrix(8.6505,0,0,8.806,566.58,-13540)"
       y1="1589.3"
       x1="63" />
    <linearGradient
       id="linearGradient4785">
      <stop
         id="stop4787"
         stop-opacity=".082474"
         offset="0" />
      <stop
         id="stop4789"
         stop-opacity="0"
         offset="1" />
    </linearGradient>
    <radialGradient
       inkscape:collect="always"
       xlink:href="#linearGradient5159"
       id="radialGradient5165"
       cx="258.52676"
       cy="563.1283"
       fx="258.52676"
       fy="563.1283"
       r="19.936708"
       gradientTransform="matrix(1,0,0,0.64382183,0,200.57401)"
       gradientUnits="userSpaceOnUse" />
    <radialGradient
       inkscape:collect="always"
       xlink:href="#linearGradient5159"
       id="radialGradient5167"
       cx="200.25136"
       cy="471.91339"
       fx="200.25136"
       fy="471.91339"
       r="8.7373524"
       gradientTransform="matrix(1,0,0,2.5723533,0,-742.01456)"
       gradientUnits="userSpaceOnUse" />
    <radialGradient
       inkscape:collect="always"
       xlink:href="#linearGradient5159"
       id="radialGradient5169"
       cx="258.51868"
       cy="380.71692"
       fx="258.51868"
       fy="380.71692"
       r="19.944769"
       gradientTransform="matrix(1,0,0,0.64426209,0,135.43544)"
       gradientUnits="userSpaceOnUse" />
    <radialGradient
       inkscape:collect="always"
       xlink:href="#linearGradient5159"
       id="radialGradient5171"
       cx="363.82956"
       cy="380.7052"
       fx="363.82956"
       fy="380.7052"
       r="19.922373"
       gradientTransform="matrix(1,0,0,0.64439777,0,135.37962)"
       gradientUnits="userSpaceOnUse" />
    <radialGradient
       inkscape:collect="always"
       xlink:href="#linearGradient5159"
       id="radialGradient5173"
       cx="422.08801"
       cy="471.91339"
       fx="422.08801"
       fy="471.91339"
       r="8.7373428"
       gradientTransform="matrix(1,0,0,2.5723568,0,-742.01623)"
       gradientUnits="userSpaceOnUse" />
    <radialGradient
       inkscape:collect="always"
       xlink:href="#linearGradient5159"
       id="radialGradient5175"
       cx="363.82434"
       cy="563.13507"
       fx="363.82434"
       fy="563.13507"
       r="19.917168"
       gradientTransform="matrix(1,0,0,0.64411405,0,200.41186)"
       gradientUnits="userSpaceOnUse" />
    <radialGradient
       inkscape:collect="always"
       xlink:href="#radialGradient1773"
       id="radialGradient5213"
       gradientUnits="userSpaceOnUse"
       gradientTransform="matrix(-1.8804,2.3609,-2.5012,-2.3991,3780.3,5333)"
       cx="-32.945"
       cy="1548.1"
       r="22.421" />
    <linearGradient
       inkscape:collect="always"
       xlink:href="#linearGradient4646"
       id="linearGradient5251"
       gradientUnits="userSpaceOnUse"
       x1="-159.14"
       y1="1539.4"
       x2="-143.82001"
       y2="1556.5" />
    <linearGradient
       inkscape:collect="always"
       xlink:href="#linearGradient4646"
       id="linearGradient5253"
       gradientUnits="userSpaceOnUse"
       x1="-0.89604002"
       y1="1561.6"
       x2="-4.9626999"
       y2="1559" />
    <linearGradient
       inkscape:collect="always"
       xlink:href="#linearGradient6758"
       id="linearGradient5268"
       gradientUnits="userSpaceOnUse"
       gradientTransform="matrix(6.2162782,0,0,6.3399787,99.577153,-9523.8675)"
       x1="63"
       y1="1589.3"
       x2="64.415001"
       y2="1584.2" />
    <linearGradient
       inkscape:collect="always"
       xlink:href="#linearGradient6758"
       id="linearGradient5271"
       gradientUnits="userSpaceOnUse"
       gradientTransform="matrix(6.2162782,0,0,6.3399787,315.42962,-9544.5091)"
       x1="24.447001"
       y1="1592.5"
       x2="24.447001"
       y2="1584.2" />
    <linearGradient
       inkscape:collect="always"
       xlink:href="#linearGradient6758"
       id="linearGradient5274"
       gradientUnits="userSpaceOnUse"
       gradientTransform="matrix(6.2162782,0,0,6.3399787,232.38256,-9534.9324)"
       x1="45.324001"
       y1="1597.3"
       x2="45.324001"
       y2="1585.4" />
    <linearGradient
       inkscape:collect="always"
       xlink:href="#linearGradient6758"
       id="linearGradient5277"
       gradientUnits="userSpaceOnUse"
       gradientTransform="matrix(6.2162782,0,0,6.3399787,200.91513,-9515.0144)"
       x1="44.248001"
       y1="1587.9"
       x2="44.248001"
       y2="1580.8" />
    <linearGradient
       inkscape:collect="always"
       xlink:href="#linearGradient6758"
       id="linearGradient5280"
       gradientUnits="userSpaceOnUse"
       gradientTransform="matrix(6.2162782,0,0,6.3399787,192.36235,-9387.0695)"
       x1="30.447001"
       y1="1567.7"
       x2="30.447001"
       y2="1533.4" />
    <linearGradient
       inkscape:collect="always"
       xlink:href="#linearGradient6758"
       id="linearGradient5283"
       gradientUnits="userSpaceOnUse"
       gradientTransform="matrix(6.2162782,0,0,6.3399787,284.5551,-9635.4576)"
       x1="21.447001"
       y1="1606.9"
       x2="21.447001"
       y2="1595.2" />
    <linearGradient
       inkscape:collect="always"
       xlink:href="#linearGradient20137"
       id="linearGradient5288"
       gradientUnits="userSpaceOnUse"
       gradientTransform="matrix(6.2162782,0,0,6.3399786,384.37188,-9558.583)"
       x1="23.75"
       y1="1627.2"
       x2="25.165001"
       y2="1583.7" />
    <linearGradient
       inkscape:collect="always"
       xlink:href="#linearGradient20137"
       id="linearGradient5290"
       gradientUnits="userSpaceOnUse"
       gradientTransform="matrix(6.2162782,0,0,6.3399786,384.37188,-9558.583)"
       x1="26.212"
       y1="1528.3"
       x2="27.4"
       y2="1651.8" />
    <linearGradient
       inkscape:collect="always"
       xlink:href="#linearGradient20137"
       id="linearGradient5293"
       gradientUnits="userSpaceOnUse"
       gradientTransform="matrix(6.2162782,0,0,6.3399786,458.97132,-9493.4223)"
       x1="8.7990999"
       y1="1589.8"
       x2="8.3376999"
       y2="1581.5" />
    <linearGradient
       inkscape:collect="always"
       xlink:href="#linearGradient20137"
       id="linearGradient5295"
       gradientUnits="userSpaceOnUse"
       gradientTransform="matrix(6.2162782,0,0,6.3399786,458.97132,-9493.4223)"
       x1="7.6469002"
       y1="1582.1"
       x2="8.1456003"
       y2="1586.4" />
    <linearGradient
       inkscape:collect="always"
       xlink:href="#linearGradient20137"
       id="linearGradient5298"
       gradientUnits="userSpaceOnUse"
       gradientTransform="matrix(6.2162782,0,0,6.3399786,20.848779,-9574.4236)"
       x1="89.156998"
       y1="1597.3"
       x2="59.752998"
       y2="1593.9" />
    <linearGradient
       inkscape:collect="always"
       xlink:href="#linearGradient20137"
       id="linearGradient5300"
       gradientUnits="userSpaceOnUse"
       gradientTransform="matrix(6.2162782,0,0,6.3399786,20.848779,-9574.4236)"
       x1="89.156998"
       y1="1597.3"
       x2="59.752998"
       y2="1593.9" />
    <linearGradient
       inkscape:collect="always"
       xlink:href="#linearGradient20137"
       id="linearGradient5303"
       gradientUnits="userSpaceOnUse"
       gradientTransform="matrix(6.2162782,0,0,6.3399786,69.146965,-9322.8608)"
       x1="72.003998"
       y1="1548.4"
       x2="59.155998"
       y2="1566.8" />
    <linearGradient
       inkscape:collect="always"
       xlink:href="#linearGradient20137"
       id="linearGradient5305"
       gradientUnits="userSpaceOnUse"
       gradientTransform="matrix(6.2162782,0,0,6.3399786,69.146965,-9322.8608)"
       x1="59.484001"
       y1="1570.1"
       x2="69.311996"
       y2="1557.6" />
    <linearGradient
       inkscape:collect="always"
       xlink:href="#linearGradient20137"
       id="linearGradient5308"
       gradientUnits="userSpaceOnUse"
       gradientTransform="matrix(6.2162782,0,0,6.3399786,139.24672,-9296.2163)"
       x1="59.308998"
       y1="1550.5"
       x2="53.797001"
       y2="1554.2" />
    <linearGradient
       inkscape:collect="always"
       xlink:href="#linearGradient20137"
       id="linearGradient5310"
       gradientUnits="userSpaceOnUse"
       gradientTransform="matrix(6.2162782,0,0,6.3399786,139.24672,-9296.2163)"
       x1="55.944"
       y1="1555.4"
       x2="60.063999"
       y2="1551" />
    <linearGradient
       inkscape:collect="always"
       xlink:href="#linearGradient20137"
       id="linearGradient5313"
       gradientUnits="userSpaceOnUse"
       gradientTransform="matrix(6.2162782,0,0,6.3399786,212.69111,-9257.0096)"
       x1="48.936001"
       y1="1546.1"
       x2="47.921001"
       y2="1548.8" />
    <linearGradient
       inkscape:collect="always"
       xlink:href="#linearGradient20137"
       id="linearGradient5315"
       gradientUnits="userSpaceOnUse"
       gradientTransform="matrix(6.2162782,0,0,6.3399786,212.69111,-9257.0096)"
       x1="46.219002"
       y1="1551"
       x2="48.936001"
       y2="1546.1" />
    <linearGradient
       inkscape:collect="always"
       xlink:href="#linearGradient20137"
       id="linearGradient5318"
       gradientUnits="userSpaceOnUse"
       gradientTransform="matrix(6.2162782,0,0,6.3399786,356.22922,-9541.5483)"
       x1="23.128"
       y1="1593.1"
       x2="23.128"
       y2="1590.7" />
    <linearGradient
       inkscape:collect="always"
       xlink:href="#linearGradient20137"
       id="linearGradient5320"
       gradientUnits="userSpaceOnUse"
       gradientTransform="matrix(6.2162782,0,0,6.3399786,356.22922,-9541.5483)"
       x1="23.128"
       y1="1588.8"
       x2="23.128"
       y2="1594.1" />
    <linearGradient
       inkscape:collect="always"
       xlink:href="#linearGradient20137"
       id="linearGradient5323"
       gradientUnits="userSpaceOnUse"
       gradientTransform="matrix(6.2162782,0,0,6.3399786,385.32806,-9519.3501)"
       x1="18.447001"
       y1="1591.1"
       x2="18.447001"
       y2="1586.7" />
    <linearGradient
       inkscape:collect="always"
       xlink:href="#linearGradient20137"
       id="linearGradient5325"
       gradientUnits="userSpaceOnUse"
       gradientTransform="matrix(6.2162782,0,0,6.3399786,385.32806,-9519.3501)"
       x1="19.006001"
       y1="1586.4"
       x2="19.424"
       y2="1590.5" />
    <linearGradient
       inkscape:collect="always"
       xlink:href="#linearGradient20137"
       id="linearGradient5328"
       gradientUnits="userSpaceOnUse"
       gradientTransform="matrix(6.2162782,0,0,6.3399786,413.7585,-9513.1878)"
       x1="12.77"
       y1="1590"
       x2="12.767"
       y2="1586.4" />
    <linearGradient
       inkscape:collect="always"
       xlink:href="#linearGradient20137"
       id="linearGradient5330"
       gradientUnits="userSpaceOnUse"
       gradientTransform="matrix(6.2162782,0,0,6.3399786,413.7585,-9513.1878)"
       x1="14.402"
       y1="1583.6"
       x2="12.767"
       y2="1586.4" />
    <radialGradient
       inkscape:collect="always"
       xlink:href="#linearGradient5159-8"
       id="radialGradient5173-7"
       cx="422.08801"
       cy="471.91339"
       fx="422.08801"
       fy="471.91339"
       r="8.7373428"
       gradientTransform="matrix(1,0,0,2.5723568,0,-742.01623)"
       gradientUnits="userSpaceOnUse" />
    <linearGradient
       id="linearGradient5159-8">
      <stop
         style="stop-color:#0016ff;stop-opacity:1;"
         offset="0"
         id="stop5161-3" />
      <stop
         style="stop-color:#00b3ff;stop-opacity:1;"
         offset="1"
         id="stop5163-3" />
    </linearGradient>
    <linearGradient
       id="linearGradient5348">
      <stop
         style="stop-color:#0016ff;stop-opacity:1;"
         offset="0"
         id="stop5350" />
      <stop
         style="stop-color:#00b3ff;stop-opacity:1;"
         offset="1"
         id="stop5352" />
    </linearGradient>
    <linearGradient
       id="linearGradient5355">
      <stop
         style="stop-color:#0016ff;stop-opacity:1;"
         offset="0"
         id="stop5357" />
      <stop
         style="stop-color:#00b3ff;stop-opacity:1;"
         offset="1"
         id="stop5359" />
    </linearGradient>
    <radialGradient
       inkscape:collect="always"
       xlink:href="#linearGradient5159-8"
       id="radialGradient5408"
       gradientUnits="userSpaceOnUse"
       gradientTransform="matrix(0.8660254,0.5,-1.2861784,2.2277263,279.07124,-853.6049)"
       cx="422.08801"
       cy="471.91339"
       fx="422.08801"
       fy="471.91339"
       r="8.7373428" />
    <radialGradient
       inkscape:collect="always"
       xlink:href="#linearGradient5159-8"
       id="radialGradient5410"
       gradientUnits="userSpaceOnUse"
       gradientTransform="matrix(0.8660254,0.5,-0.32213104,0.55794734,-50.256956,95.308647)"
       cx="258.51868"
       cy="380.71692"
       fx="258.51868"
       fy="380.71692"
       r="19.944769" />
    <radialGradient
       inkscape:collect="always"
       xlink:href="#linearGradient5159-8"
       id="radialGradient5412"
       gradientUnits="userSpaceOnUse"
       gradientTransform="matrix(0.8660254,0.5,-0.32191092,0.55756606,26.855143,-37.724454)"
       cx="258.52676"
       cy="563.1283"
       fx="258.52676"
       fy="563.1283"
       r="19.936708" />
  </defs>
  <metadata
     id="metadata7">
    <rdf:RDF>
      <cc:Work
         rdf:about="">
        <dc:format>image/svg+xml</dc:format>
        <dc:type
           rdf:resource="http://purl.org/dc/dcmitype/StillImage" />
        <dc:title></dc:title>
      </cc:Work>
    </rdf:RDF>
  </metadata>
  <g
     id="layer1"
     inkscape:groupmode="layer"
     inkscape:label="Layer 1"
     transform="translate(0,-52.362183)">
    <g
       id="g5414"
       transform="matrix(3.9296168,0,0,3.9296168,-722.77762,-1302.0854)">
      <path
         inkscape:connector-curvature="0"
         style="color:#000000;fill:none;stroke:url(#radialGradient5175);stroke-width:6.32218504;stroke-linecap:round;stroke-linejoin:round;stroke-miterlimit:4;stroke-opacity:1;stroke-dasharray:none;marker:none;visibility:visible;display:inline;overflow:visible;enable-background:accumulate"
         d="m 380.58043,553.46725 -11.16345,19.33565 0,0 -22.3487,2e-5"
         id="path3801" />
      <path
         inkscape:connector-curvature="0"
         style="color:#000000;fill:none;stroke:url(#radialGradient5173);stroke-width:6.32218504;stroke-linecap:round;stroke-linejoin:round;stroke-miterlimit:4;stroke-opacity:1;stroke-dasharray:none;marker:none;visibility:visible;display:inline;overflow:visible;enable-background:accumulate"
         d="m 416.51177,452.59892 11.1525,19.31671 -11.14991,19.31223"
         id="path3797" />
      <path
         inkscape:connector-curvature="0"
         style="color:#000000;fill:none;stroke:url(#radialGradient5171);stroke-width:6.32218504;stroke-linecap:round;stroke-linejoin:round;stroke-miterlimit:4;stroke-opacity:1;stroke-dasharray:none;marker:none;visibility:visible;display:inline;overflow:visible;enable-background:accumulate"
         d="m 347.06828,371.02836 22.34871,0 11.17385,19.35368"
         id="path3793" />
      <path
         inkscape:connector-curvature="0"
         style="color:#000000;fill:none;stroke:url(#radialGradient5169);stroke-width:6.32218504;stroke-linecap:round;stroke-linejoin:round;stroke-miterlimit:4;stroke-opacity:1;stroke-dasharray:none;marker:none;visibility:visible;display:inline;overflow:visible;enable-background:accumulate"
         d="m 241.73501,390.40548 11.18739,-19.37713 22.37996,0"
         id="path3789" />
      <path
         inkscape:connector-curvature="0"
         style="color:#000000;fill:none;stroke:url(#radialGradient5167);stroke-width:6.32218504;stroke-linecap:round;stroke-linejoin:round;stroke-miterlimit:4;stroke-opacity:1;stroke-dasharray:none;marker:none;visibility:visible;display:inline;overflow:visible;enable-background:accumulate"
         d="m 205.82502,491.22785 -11.14992,-19.31223 11.15252,-19.3167"
         id="path3785" />
      <path
         inkscape:connector-curvature="0"
         style="color:#000000;fill:none;stroke:url(#radialGradient5165);stroke-width:6.32218504;stroke-linecap:round;stroke-linejoin:round;stroke-miterlimit:4;stroke-opacity:1;stroke-dasharray:none;marker:none;visibility:visible;display:inline;overflow:visible;enable-background:accumulate"
         d="m 275.30236,572.8029 -22.37997,0 -11.17126,-19.34919"
         id="path3781" />
    </g>
    <path
       id="path6532"
       sodipodi:rx="22.156204"
       sodipodi:ry="23.901844"
       sodipodi:cx="-21.619085"
       sodipodi:type="arc"
       d="m 0.53711891,1552.421 a 22.156204,23.901844 0 1 1 -44.31240891,0 22.156204,23.901844 0 1 1 44.31240891,0 z"
       transform="matrix(15.807836,0,0,14.690809,841.75096,-22253.959)"
       sodipodi:cy="1552.421"
       style="fill:url(#radialGradient5213);stroke:#000000;stroke-width:0.52936;stroke-linecap:round;stroke-linejoin:round" />
    <path
       id="path6596"
       d="m 484.39723,552.70515 c -0.65392,-8.02036 11.60545,-8.41634 28.04709,-6.33565 -5.06613,2.77904 -3.51397,7.12042 3.18342,12.67852 -10.41257,0.26642 -20.82511,2.2103 -31.23051,-6.34287 z"
       sodipodi:nodetypes="cccc"
       style="fill:url(#linearGradient5328);fill-rule:evenodd;stroke:url(#linearGradient5330);stroke-width:1.56947315;stroke-linejoin:round"
       inkscape:connector-curvature="0" />
    <path
       id="path6598"
       d="m 492.96767,546.54283 c 1.97617,-0.92154 12.98519,-1.7855 15.90987,0 -5.93563,3.77258 -10.11073,7.99158 -12.43181,12.67851 -3.3918,-2.95904 -7.91184,-5.27732 -3.47806,-12.67851 z"
       sodipodi:nodetypes="cccc"
       style="fill:url(#linearGradient5323);fill-rule:evenodd;stroke:url(#linearGradient5325);stroke-width:1.56947315;stroke-linejoin:round"
       inkscape:connector-curvature="0" />
    <path
       id="path6600"
       d="m 492.21057,537.0232 c 8.27829,7.94117 4.72123,20.26691 3.56427,31.6999 4.3188,-5.56532 13.18634,-1.17354 11.88567,-19.02139 -5.68414,-14.0464 -10.66407,-15.11196 -15.44994,-12.67851 z"
       sodipodi:nodetypes="cccc"
       style="fill:url(#linearGradient5318);fill-rule:evenodd;stroke:url(#linearGradient5320);stroke-width:1.56947315;stroke-linejoin:round"
       inkscape:connector-curvature="0" />
    <path
       id="path6664"
       d="m 507.21072,548.27905 c 3.55709,4.67831 2.24204,7.09886 0.0433,9.52079 -10.5491,-4.22691 -19.19389,-5.2939 -15.99611,-9.52079 6.49618,-1.79703 11.82101,-1.81502 15.953,0 z"
       sodipodi:nodetypes="cccc"
       style="fill:url(#linearGradient5313);fill-rule:evenodd;stroke:url(#linearGradient5315);stroke-width:2.35413814;stroke-linecap:round;stroke-linejoin:round"
       inkscape:connector-curvature="0" />
    <path
       id="path6662"
       d="m 504.81464,540.77223 c -10.85089,-2.38307 -21.98928,-5.3205 -24.86368,6.34289 7.32975,1.50472 13.72532,6.70282 18.68368,19.01415 2.08395,-2.10948 7.68908,1.64153 6.17999,-6.33565 -3.01814,-4.22618 -6.03624,-8.45236 -9.0544,-12.6785 6.97045,3.5926 13.43788,0.97194 21.48625,19.01415 0.93417,-2.10948 1.86838,-4.22614 2.80256,-6.33565 -3.73674,-11.30337 -7.47349,-14.03926 -15.23441,-19.02139 z"
       sodipodi:nodetypes="cccccccc"
       style="fill:url(#linearGradient5308);fill-rule:evenodd;stroke:url(#linearGradient5310);stroke-width:2.35413814;stroke-linecap:round;stroke-linejoin:round"
       inkscape:connector-curvature="0" />
    <path
       id="path6660"
       d="m 546.60144,583.86317 c -25.43857,-36.96281 -69.27337,-71.79453 -93.20289,-88.75686 19.76162,17.49509 17.03093,26.17782 6.18,31.69992 -1.72464,6.73885 -2.29953,13.88804 9.84486,25.36422 13.86909,12.10254 12.14441,17.73267 0,19.01419 -16.59972,-3.81581 -19.11483,0.85675 -9.84486,12.67853 8.91068,6.65244 14.22835,16.91188 21.34252,25.36422 7.54535,-2.44788 25.51041,8.42356 15.953,-15.68793 -4.59908,-11.91539 -4.81465,-21.59164 0,-28.6905 4.31161,-1.51912 5.9644,-6.6524 6.25186,-12.67851 10.4916,12.82254 29.03158,21.13089 43.47551,31.69272 z"
       sodipodi:nodetypes="ccccccccccc"
       style="fill:url(#linearGradient5303);fill-rule:evenodd;stroke:url(#linearGradient5305);stroke-width:2.35413814;stroke-linecap:round;stroke-linejoin:round"
       inkscape:connector-curvature="0" />
    <path
       id="path6636"
       d="m 515.11856,383.07204 c -33.27132,-38.39554 -54.54197,-31.9735 -76.60312,-2.42627 -0.86232,7.68916 0.7186,15.09036 6.17999,22.05961 -14.44394,8.94192 -7.76092,28.20085 -15.23438,34.99729 0.64673,8.35876 1.43721,16.83989 -3.37743,21.70685 7.0423,0.95035 10.9946,6.76763 12.43182,16.33593 v 41.68572 c 20.55206,28.00651 42.11017,61.85191 55.90732,47.07108 6.46746,-8.75472 13.86908,-7.61716 23.06721,-6.60922 -5.96442,-10.26667 6.46739,-10.9938 19.18672,-13.52091 9.77298,6.99807 17.60578,19.71975 13.72528,58.17287 4.0242,48.6046 -17.82136,97.20917 -40.74478,145.82097 51.23641,-82.65876 109.01212,-214.00128 11.13834,-382.28505 -2.08396,4.2262 -3.59302,12.75775 -5.67697,16.99113 z"
       sodipodi:nodetypes="cccccccccccccc"
       style="fill:url(#linearGradient5298);fill-rule:evenodd;stroke:url(#linearGradient5300);stroke-width:2.35413814;stroke-linecap:round;stroke-linejoin:round"
       inkscape:connector-curvature="0" />
    <path
       id="path6594"
       d="m 489.27486,534.43515 c 15.50744,5.11172 26.52365,13.78008 33.88214,25.35704 l -6.29497,10.49703 c -12.77677,-15.56556 -26.35119,-22.2324 -40.01903,-27.7833 l 12.43186,-8.07077 z"
       sodipodi:nodetypes="ccccc"
       style="fill:url(#linearGradient5293);fill-rule:evenodd;stroke:url(#linearGradient5295);stroke-width:1.56947315;stroke-linecap:round;stroke-linejoin:round"
       inkscape:connector-curvature="0" />
    <path
       id="path6562"
       d="m 519.38312,872.95666 c 10.32633,-16.61669 17.97226,-35.75326 43.51143,-38.04278 24.16663,0.68399 36.13138,-23.51392 49.73453,-44.37837 22.95937,-6.87565 45.00614,-15.42879 55.94328,-44.37843 -9.73709,-13.37689 0.36663,-28.51766 18.64772,-44.37843 23.98702,-20.90044 14.86076,-32.68622 -6.21591,-41.17457 -13.0642,-3.25422 -37.06555,-9.30191 -74.591,-18.79817 -19.30168,-1.41832 -16.57819,-23.42036 -24.86371,-35.12693 -3.5427,-11.51216 -24.35343,-16.17034 -49.73452,-19.02135 -17.8501,-29.25203 -36.90029,-30.43998 -55.94324,-31.69989 -16.93032,-12.30416 -35.35533,-13.87369 -55.95048,0 -1.23599,7.01963 -5.68415,11.69936 -16.09675,0 -17.09554,10.6986 -22.84438,2.70702 -24.10194,-12.67853 9.44249,-36.61723 -6.35242,-34.01818 -21.96051,-31.6999 8.48672,-8.25075 11.2246,-22.36199 12.43185,-38.04275 -60.37706,48.06461 -38.89802,-9.96424 -37.29551,-44.37841 19.80472,1.06556 46.17743,-38.03555 74.591,6.34287 -4.12476,7.5308 -3.44926,13.98166 3.42778,19.02135 2.14142,-33.70139 9.51429,-52.05316 21.43593,-57.06412 13.94806,-0.84955 24.80618,-11.95854 33.86775,-29.00003 4.75717,-7.50918 16.34823,-11.54097 28.2986,-15.37837 -1.51625,-10.28824 4.26131,-14.86 18.64775,-12.6785 10.76468,4.91733 21.51501,9.47469 31.07963,-6.34289 -11.66295,-2.53425 -20.53053,-7.45156 -24.86368,-16.2207 -8.91069,-16.36472 4.87929,-9.56831 18.64776,-2.79345 7.22913,-5.89651 15.19844,-9.1507 24.86367,-6.34286 -10.33351,8.28676 -14.94696,15.67355 6.2159,19.02139 14.87509,4.28374 6.76924,-12.82255 -6.2159,-34.47175 -12.33845,-15.00402 -23.59897,-24.78107 -31.07961,-16.24956 -8.04838,-13.73683 -15.88831,-28.7545 -31.07957,0 -19.31609,21.99482 -32.48089,30.32478 -31.07963,6.34288 -10.03167,-5.4933 -18.74835,-11.08742 0,-19.02139 6.8483,-6.48972 13.50255,-13.22353 31.07963,-6.34143 13.15761,-8.96063 24.89238,-5.60273 36.83558,4.00157 16.65004,-5.24634 31.77667,-9.16512 31.5395,-23.02149 -9.49992,-12.06512 -24.51156,-5.41986 -37.29551,-6.33997 13.88341,-3.76178 24.33191,-9.62372 49.73452,-6.33995 9.97425,0.39177 13.34448,7.52284 6.21595,25.35989 14.79603,28.15334 25.82658,21.01135 39.37943,-1.87117 7.38006,-3.00514 18.88492,-4.13762 26.26497,-7.14203 -14.85351,-13.56045 -38.3375,-29.39385 -44.7115,-33.07215 -85.27665,0.0451 -180.93712,27.2268 -232.28853,80.1245 -24.79183,31.5127 -59.11231,58.68405 -67.66367,106.84223 -7.07108,41.33299 -18.61185,115.53939 -0.71861,77.01425 -1.42285,14.47126 2.99657,25.94743 18.65496,31.69991 8.89628,12.31133 18.53992,21.56283 31.07956,19.02139 7.25789,19.10775 11.14554,39.93623 34.72293,50.72126 14.53734,-8.22918 18.81304,3.76539 15.00441,31.6999 -8.34297,7.30758 -15.17689,16.92627 -18.64771,31.69986 -10.4557,18.15023 12.07252,44.37843 31.07957,69.73545 13.68221,25.62343 51.57416,42.67212 49.73452,76.08552 -0.83355,31.18151 1.27913,61.1175 15.00447,86.12177 18.75555,27.03455 33.00543,37.64674 34.72291,2.63503 z"
       sodipodi:nodetypes="ccccccccccccccccccccccccccccccccccccccccccccccccccccc"
       style="fill:url(#linearGradient5288);fill-rule:evenodd;stroke:url(#linearGradient5290);stroke-width:2.35413814;stroke-linecap:round;stroke-linejoin:round"
       inkscape:connector-curvature="0" />
    <path
       id="path6550"
       sodipodi:rx="33.622631"
       sodipodi:ry="34.809311"
       sodipodi:type="arc"
       d="m -113.92138,1558.6794 a 33.622631,34.809311 0 1 1 -67.24526,0 33.622631,34.809311 0 1 1 67.24526,0 z"
       transform="matrix(8.4450265,0,0,7.5459137,1746.013,-11209.298)"
       sodipodi:cy="1558.6794"
       sodipodi:cx="-147.54401"
       style="fill:url(#linearGradient5251)" />
    <path
       id="path6630"
       sodipodi:rx="22.156204"
       sodipodi:ry="23.901844"
       sodipodi:cx="-21.619085"
       sodipodi:type="arc"
       d="m 0.53711891,1552.421 a 22.156204,23.901844 0 1 1 -44.31240891,0 22.156204,23.901844 0 1 1 44.31240891,0 z"
       transform="matrix(15.807836,0,0,14.690809,841.75096,-22253.959)"
       sodipodi:cy="1552.421"
       style="fill:url(#linearGradient5253);stroke:#000000;stroke-width:0.52936;stroke-linecap:round;stroke-linejoin:round" />
    <path
       id="path6728"
       d="m 498.69171,491.00564 c -60.45609,69.49787 -54.01742,46.6895 -80.81411,69.73546 5.82068,21.33965 -7.30104,46.19273 40.48611,59.74959 29.23995,-68.85711 63.05027,-42.40572 96.27129,-28.04968 29.38366,-6.78205 30.37534,-27.18576 24.87085,-50.72126 -54.87973,-54.90426 -66.55706,-67.16522 -80.81414,-50.71411 z"
       sodipodi:nodetypes="cccccc"
       style="fill:url(#linearGradient5283);fill-rule:evenodd"
       inkscape:connector-curvature="0" />
    <path
       id="path6730"
       d="m 617.86178,593.57277 c -30.97183,-40.9298 -43.18806,-3.44142 -55.9792,31.6999 -5.74884,11.73536 -4.59907,22.0668 0,31.69986 6.25186,6.33569 7.04231,9.51069 13.22228,15.84637 -17.60578,7.31479 -30.61249,10.33144 -44.26595,53.88908 -16.59976,-8.13555 -33.17072,-5.44291 -49.74891,-3.31898 11.10243,-8.91316 26.25059,-10.98663 43.49705,-9.35952 2.94627,-18.9566 15.73741,-36.89802 37.29553,-46.96305 -1.00607,-4.42059 -5.96442,-9.6331 -12.43186,-3.75821 -4.09603,8.71872 -8.26395,12.6857 -12.43182,19.02139 -7.76092,-0.79197 -4.67093,-12.67857 0,-19.02139 5.67696,-6.40044 12.71926,-9.21552 12.43182,-31.69991 -10.34786,4.23338 -20.69577,8.45956 -31.04366,12.68569 -16.21167,-11.70654 -11.85696,-23.41311 -3.4493,-35.11249 13.94091,-12.28252 2.37141,-18.99976 -12.26654,-25.03303 -67.00978,-4.97493 -47.77994,-43.77366 -36.81406,-79.33251 -11.50482,6.33562 -29.22558,0.79193 -34.51454,19.01415 -80.72788,-44.09043 -33.14913,-97.20918 -49.72732,-145.81374 79.70029,12.85274 151.50315,29.87047 167.81542,76.07829 40.02622,36.12768 73.44127,76.21511 68.41106,139.4781 z"
       sodipodi:nodetypes="cccccccccccccccccccc"
       style="fill:url(#linearGradient5280);fill-rule:evenodd"
       inkscape:connector-curvature="0" />
    <path
       id="path6732"
       d="m 523.51054,560.72752 c 5.24582,-1.89349 -30.84961,-17.71106 -42.94373,-31.69991 -3.61456,14.79521 -9.45681,29.58322 2.86003,44.37843 17.65613,5.62288 30.74187,0.70557 40.0837,-12.67852 z"
       sodipodi:nodetypes="cccc"
       style="fill:url(#linearGradient5277);fill-rule:evenodd"
       inkscape:connector-curvature="0" />
    <path
       id="path6734"
       d="m 496.24654,540.80954 c -7.87588,6.33568 -13.20795,12.67852 -8.75979,19.02139 7.0639,0.71276 14.12773,12.39769 21.19161,0 9.37061,-4.97493 4.81465,-11.98014 0,-19.02139 -0.75451,-2.30385 -5.46857,-1.92229 -12.43182,0 z"
       sodipodi:nodetypes="ccccc"
       style="fill:url(#linearGradient5274);fill-rule:evenodd"
       inkscape:connector-curvature="0" />
    <path
       id="path6736"
       d="m 532.18913,543.91137 c -24.69838,3.70059 -32.90483,15.81034 -46.13434,25.35702 -7.51657,8.17875 -13.17198,3.04547 -18.65493,-3.31898 3.09001,-8.80514 1.94024,-18.22222 18.65493,-25.03308 11.28209,3.00946 22.57134,-0.0159 33.86062,-9.68348 8.15615,0.90716 14.37205,3.39822 12.27372,12.67852 z"
       sodipodi:nodetypes="cccccc"
       style="fill:url(#linearGradient5271);fill-rule:evenodd"
       inkscape:connector-curvature="0" />
    <path
       id="path6738"
       d="m 503.44662,542.78139 c 5.03022,5.14772 6.97045,9.49628 3.73672,14.63681 l -6.97044,7.13481 c -1.00605,-6.34284 -3.88045,-12.67852 -8.98255,-19.02135 4.09604,-6.91165 8.1202,-6.35007 12.21627,-2.75027 z"
       sodipodi:nodetypes="ccccc"
       style="fill:url(#linearGradient5268);fill-rule:evenodd"
       inkscape:connector-curvature="0" />
    <g
       id="g2617"
       transform="matrix(0.18186827,0,0,0.18186827,528.70393,446.93634)">
      <g
         id="g2049"
         transform="translate(71.669,8.7884)">
        <g
           id="g2875"
           transform="translate(-48.932,87.179)">
          <g
             id="g2360"
             transform="translate(-58.334,26.882)">
            <g
               id="g2396"
               transform="translate(0.84266,31.106)">
              <g
                 id="g2398"
                 transform="translate(71.669,8.7884)" />
            </g>
          </g>
        </g>
        <g
           id="g3393"
           transform="translate(-128.6,92.726)">
          <g
             id="g3842"
             transform="translate(5.6673,-1.8166e-6)" />
        </g>
      </g>
    </g>
    <g
       id="g5403"
       transform="matrix(3.9296168,0,0,3.9296168,298.95935,-1070.065)">
      <path
         inkscape:connector-curvature="0"
         style="color:#000000;fill:none;stroke:url(#radialGradient5408);stroke-width:6.32218504;stroke-linecap:round;stroke-linejoin:round;stroke-miterlimit:4;stroke-opacity:1;stroke-dasharray:none;marker:none;visibility:visible;display:inline;overflow:visible;enable-background:accumulate"
         d="m 42.47342,389.21807 0,22.305 L 23.1612,422.673"
         id="path3797-2" />
      <path
         inkscape:connector-curvature="0"
         style="color:#000000;fill:none;stroke:url(#radialGradient5410);stroke-width:6.32218504;stroke-linecap:round;stroke-linejoin:round;stroke-miterlimit:4;stroke-opacity:1;stroke-dasharray:none;marker:none;visibility:visible;display:inline;overflow:visible;enable-background:accumulate"
         d="m 31.606682,436.9867 19.377129,-11.18739 19.381614,11.18998"
         id="path3789-5" />
      <path
         inkscape:connector-curvature="0"
         style="color:#000000;fill:none;stroke:url(#radialGradient5412);stroke-width:6.32218504;stroke-linecap:round;stroke-linejoin:round;stroke-miterlimit:4;stroke-opacity:1;stroke-dasharray:none;marker:none;visibility:visible;display:inline;overflow:visible;enable-background:accumulate"
         d="m 79.159539,422.2864 -19.381622,-11.18999 0,-22.34252"
         id="path3781-7" />
    </g>
  </g>
</svg>
